<?xml version="1.0" encoding="UTF-8"?>
<svg width="94px" height="94px" viewBox="0 0 94 94" version="1.1" xmlns="http://www.w3.org/2000/svg" xmlns:xlink="http://www.w3.org/1999/xlink">
    <title>데이지 고객 의견 아이콘@1x</title>
    <defs>
        <rect id="path-1" x="11.7609008" y="59.6201118" width="70.8136344" height="17.5013436" rx="4.71224162"></rect>
        <filter x="-0.7%" y="-2.9%" width="101.4%" height="111.4%" filterUnits="objectBoundingBox" id="filter-2">
            <feOffset dx="0" dy="1" in="SourceAlpha" result="shadowOffsetOuter1"></feOffset>
            <feColorMatrix values="0 0 0 0 0   0 0 0 0 0   0 0 0 0 0  0 0 0 0.158768234 0" type="matrix" in="shadowOffsetOuter1"></feColorMatrix>
        </filter>
    </defs>
    <g id="로그인-후" stroke="none" stroke-width="1" fill="none" fill-rule="evenodd">
        <g id="FAB_구글폼-피드백-링크-아이콘_pc(1200)-Copy" transform="translate(-1070.000000, -539.000000)">
            <g id="데이지-고객-의견-아이콘" transform="translate(1070.000000, 539.000000)">
                <circle id="Oval" cx="47" cy="47" r="47"></circle>
                <path d="M34.8749896,39.1834286 C27.1341034,36.3039254 18.6077889,29.3132038 16.7932386,21.8783747 C15.3353892,15.9050704 14.0615528,9.65801368 23.7298393,11.9803885 C31.031873,13.7343765 34.9080059,25.7953649 36.7586941,30.6937283 C37.7389724,33.288309 40.5622775,39.9100311 35.78636,40.091623 L34.8749896,39.1834286 Z" id="Path-2" fill="#683FEE" transform="translate(27.137060, 25.787640) rotate(-360.000000) translate(-27.137060, -25.787640) "></path>
                <path d="M71.7920502,39.1834286 C64.051164,36.3039254 55.5248495,29.3132038 53.7102992,21.8783747 C52.2524498,15.9050704 50.9786134,9.65801368 60.6468999,11.9803885 C67.9489336,13.7343765 71.8250665,25.7953649 73.6757546,30.6937283 C74.656033,33.288309 77.4793381,39.9100311 72.7034206,40.091623 L71.7920502,39.1834286 Z" id="Path-2" fill="#683FEE" transform="translate(64.054121, 25.787640) scale(-1, 1) rotate(360.000000) translate(-64.054121, -25.787640) "></path>
                <path d="M43.7947313,34.7447937 C39.4663966,28.4914801 37.3660586,18.791117 40.5351088,10.671943 C41.9296277,7.09915585 43.8610027,4.5374258 46.5727273,4.3184842 C48.0674878,4.19779892 49.6310909,4.13903628 51.8686879,6.5451437 C56.6244918,11.6591007 53.1832255,23.8419624 51.2742963,28.7706804 C50.2631687,31.3813394 47.9460268,38.2062714 43.9063358,35.9452539 L43.7947313,34.7447937 Z" id="Path-2" fill="#683FEE" transform="translate(46.641933, 20.334951) rotate(-360.000000) translate(-46.641933, -20.334951) "></path>
                <path d="M30.7165527,48.4624869 C23.6808808,50.1343496 13.683804,48.6342777 8.05636139,43.1114944 C3.5351509,38.6743695 -1.02019878,33.8980832 7.01747089,30.6951439 C13.087971,28.2761041 22.8603869,36.7303999 27.0200405,40.0142741 C29.223339,41.7536871 35.0682861,46.0188258 31.8798587,48.763666 L30.7165527,48.4624869 Z" id="Path-2" fill="#683FEE" transform="translate(17.709921, 39.687373) rotate(-366.000000) translate(-17.709921, -39.687373) "></path>
                <path d="M88.4421644,48.4624869 C81.4064925,50.1343496 71.4094157,48.6342777 65.7819731,43.1114944 C61.2607626,38.6743695 56.7054129,33.8980832 64.7430826,30.6951439 C70.8135827,28.2761041 80.5859986,36.7303999 84.7456522,40.0142741 C86.9489507,41.753687 92.7938978,46.0188258 89.6054704,48.763666 L88.4421644,48.4624869 Z" id="Path-2" fill="#683FEE" transform="translate(75.435533, 39.687373) scale(-1, 1) rotate(354.000000) translate(-75.435533, -39.687373) "></path>
                <path d="M86.6135842,57.335421 C82.7706429,63.074148 75.6145093,68.1356357 69.5394016,67.251469 C64.6585271,66.5411101 59.6070683,65.5814747 63.4316141,57.9936691 C66.3201261,52.2629317 76.3727624,52.8915247 80.5139988,52.9079434 C82.7075421,52.9166401 88.3738282,52.6610472 87.5017047,56.8474881 L86.6135842,57.335421 Z" id="Path-2" stroke="#683FEE" stroke-width="1.00998957" fill="#683FEE" transform="translate(74.839008, 60.116229) scale(-1, 1) rotate(360.000000) translate(-74.839008, -60.116229) "></path>
                <path d="M31.2379934,57.335421 C27.395052,63.074148 20.2389185,68.1356357 14.1638107,67.251469 C9.2829362,66.5411101 4.23147747,65.5814747 8.05602322,57.9936691 C10.9445352,52.2629317 20.9971715,52.8915247 25.1384079,52.9079434 C27.3319512,52.9166401 32.9982373,52.6610472 32.1261138,56.8474881 L31.2379934,57.335421 Z" id="Path-2" stroke="#683FEE" stroke-width="1.00998957" fill="#683FEE" transform="translate(19.463417, 60.116229) rotate(-360.000000) translate(-19.463417, -60.116229) "></path>
                <path d="M49.3770274,75.1592417 C45.5223033,80.8973271 38.3518969,85.9633988 32.2717357,85.0884462 C27.3868011,84.3854901 22.3314464,83.4337467 26.1702768,75.8485075 C29.0695774,70.1197082 39.1317134,70.7339117 43.2771939,70.7446517 C45.4729852,70.7503405 51.1454574,70.4872633 50.266728,74.6705958 L49.3770274,75.1592417 Z" id="Path-2" stroke="#683FEE" stroke-width="1.00998957" fill="#683FEE" transform="translate(37.587698, 77.954000) rotate(-397.000000) translate(-37.587698, -77.954000) "></path>
                <path d="M69.8464953,75.1592417 C65.9917711,80.8973271 58.8213647,85.9633988 52.7412035,85.0884462 C47.856269,84.3854901 42.8009143,83.4337467 46.6397447,75.8485075 C49.5390453,70.1197082 59.6011812,70.7339117 63.7466618,70.7446517 C65.942453,70.7503405 71.6149253,70.4872633 70.7361959,74.6705958 L69.8464953,75.1592417 Z" id="Path-2" stroke="#683FEE" stroke-width="1.00998957" fill="#683FEE" transform="translate(58.057166, 77.954000) scale(-1, 1) rotate(323.000000) translate(-58.057166, -77.954000) "></path>
                <ellipse id="Oval" fill="#FFEC07" transform="translate(46.747284, 49.380292) rotate(-360.000000) translate(-46.747284, -49.380292) " cx="46.7472838" cy="49.3802921" rx="19.5616262" ry="19.6089927"></ellipse>
                <g id="Rectangle" transform="translate(47.167718, 68.370784) rotate(-360.000000) translate(-47.167718, -68.370784) ">
                    <use fill="black" fill-opacity="1" filter="url(#filter-2)" xlink:href="#path-1"></use>
                    <use fill="#FFFFFF" fill-rule="evenodd" xlink:href="#path-1"></use>
                </g>
                <g id="Group-2" transform="translate(46.828426, 48.789050) rotate(-360.000000) translate(-46.828426, -48.789050) translate(38.323371, 42.963189)">
                    <ellipse id="Oval" fill="#000000" cx="2.21173776" cy="2.30871464" rx="2.21173776" ry="2.30871464"></ellipse>
                    <ellipse id="Oval" fill="#000000" cx="11.9802462" cy="2.30871464" rx="2.21173776" ry="2.30871464"></ellipse>
                    <path d="M6.45724381,11.2912932 C11.5975038,12.0327798 12.8246916,11.8583955 17.0101097,8.55895094" id="Path-3" stroke="#000000" stroke-width="2.15549761" stroke-linecap="round"></path>
                </g>
                <path d="M87.7058991,59.4296138 C83.8629578,65.1683407 76.9656437,68.5378653 70.8905359,67.6536986 C66.0096614,66.9433397 61.6528978,65.5814747 65.4774436,57.9936691 C68.3659556,52.2629317 78.4185919,52.8915247 82.5598283,52.9079434 C84.0221905,52.9137412 85.7375474,55.0876313 87.7058991,59.4296138 Z" id="Path-2" fill="#683FEE" transform="translate(75.861922, 60.336912) scale(-1, 1) rotate(360.000000) translate(-75.861922, -60.336912) "></path>
                <text id="고객-의견" transform="translate(47.236505, 68.320468) rotate(-360.000000) translate(-47.236505, -68.320468) " font-family="NanumGothicExtraBold, Nanum Gothic" font-size="9.4" font-weight="600" fill="#000000">
                    <tspan x="26.6834401" y="71.8204684">고객 의견</tspan>
                </text>
            </g>
        </g>
    </g>
</svg>