<?xml version="1.0" encoding="UTF-8"?>
<svg width="105px" height="105px" viewBox="0 0 105 105" version="1.1" xmlns="http://www.w3.org/2000/svg" xmlns:xlink="http://www.w3.org/1999/xlink">
    <title>ic / 개발자 디자이너</title>
    <defs>
        <circle id="path-1" cx="47.5" cy="47.5" r="47.5"></circle>
        <filter x="-6.8%" y="-6.8%" width="117.9%" height="117.9%" filterUnits="objectBoundingBox" id="filter-3">
            <feOffset dx="2" dy="2" in="SourceAlpha" result="shadowOffsetOuter1"></feOffset>
            <feGaussianBlur stdDeviation="2.5" in="shadowOffsetOuter1" result="shadowBlurOuter1"></feGaussianBlur>
            <feColorMatrix values="0 0 0 0 0   0 0 0 0 0   0 0 0 0 0  0 0 0 0.2 0" type="matrix" in="shadowBlurOuter1"></feColorMatrix>
        </filter>
    </defs>
    <g id="로그인-후" stroke="none" stroke-width="1" fill="none" fill-rule="evenodd">
        <g id="서비스-소개_pc(1200)" transform="translate(-379.000000, -2218.000000)">
            <g id="Group-6" transform="translate(382.000000, 2092.000000)">
                <g id="ic-/-개발자-디자이너" transform="translate(0.000000, 129.000000)">
                    <mask id="mask-2" fill="white">
                        <use xlink:href="#path-1"></use>
                    </mask>
                    <g id="Oval">
                        <use fill="black" fill-opacity="1" filter="url(#filter-3)" xlink:href="#path-1"></use>
                        <use fill="#FFFFFF" fill-rule="evenodd" xlink:href="#path-1"></use>
                    </g>
                    <g id="Group-7" mask="url(#mask-2)">
                        <g transform="translate(3.247863, 21.111111)">
                            <g id="Group-14" transform="translate(40.598291, 19.487179)">
                                <polygon id="Path" fill="#E6E6E6" fill-rule="nonzero" style="mix-blend-mode: multiply;" points="1.9661539 1.93186359 1.9661539 2.22558967 1.9661539 6.07249555 1.9661539 6.36622162 1.9661539 35.9303338 1.9661539 38.1623932 48.7179487 38.1623932 48.7179487 35.9303338 48.7179487 6.36622162 48.7179487 6.07249555 48.7179487 2.22558967 48.7179487 1.93186359"></polygon>
                                <rect id="Rectangle" fill="#FFFFFF" fill-rule="nonzero" x="0" y="0" width="46.7504779" height="36.2305296"></rect>
                                <polygon id="Path" fill="#F2F5FA" fill-rule="nonzero" points="46.7517948 36.2305296 7.48579436e-15 36.2305296 46.7517948 0"></polygon>
                                <rect id="Rectangle" fill="#F2F2F2" fill-rule="nonzero" style="mix-blend-mode: multiply;" x="0" y="0.293726079" width="46.7504779" height="4.14063195"></rect>
                                <rect id="Rectangle" fill="#565072" fill-rule="nonzero" x="0" y="0" width="46.7504779" height="4.14063195"></rect>
                                <path d="M18.5158231,23.0659079 C18.8259181,23.3632345 18.9218667,23.8154672 18.7585124,24.2097707 C18.595158,24.6040742 18.2050423,24.8619281 17.7717662,24.8619281 C17.4829919,24.8636566 17.2044954,24.7567011 16.9934695,24.5630051 L12.2394068,19.8245694 C12.1880471,19.8077481 12.1722441,19.7741055 12.1551243,19.7249355 C12.1395082,19.7116491 12.1222528,19.7003461 12.1037646,19.6912928 C12.079719,19.6511343 12.0623792,19.6074487 12.0524049,19.5618981 C12.0252778,19.5495432 12.0060726,19.5248667 12.0010452,19.4959068 C11.9839253,19.4622641 11.9839253,19.4130941 11.9668054,19.3962728 C11.9668054,19.3458088 11.9325656,19.3302815 11.9325656,19.3134602 L11.9325656,19.1970049 C11.9325656,19.1633622 11.9154457,19.1465409 11.9154457,19.0973709 C11.9154457,19.0805496 11.9325656,19.0313796 11.9325656,19.0145583 L11.9325656,18.898103 C11.9325656,18.8644604 11.9668054,18.8476391 11.9668054,18.8321117 C11.9839253,18.7816477 11.9839253,18.7492991 12.0010452,18.7027169 C12.0010452,18.6858956 12.0181651,18.6858956 12.0181651,18.6690743 C12.0426118,18.6171465 12.0707767,18.566988 12.1024477,18.5189764 C12.102072,18.5099457 12.1055587,18.5011725 12.1120631,18.4947815 C12.1185675,18.4883905 12.1274965,18.4849647 12.1366874,18.4853338 C12.1600555,18.4388011 12.194918,18.3987634 12.2380899,18.3688785 L16.9921526,13.6304428 C17.4183848,13.2314962 18.0882739,13.2314962 18.5145062,13.6304428 C18.7174921,13.8282184 18.8316724,14.097464 18.8316724,14.3783444 C18.8316724,14.6592249 18.7174921,14.9284705 18.5145062,15.1262461 L14.5031835,19.0921951 L18.5158231,23.0659079 Z" id="Path" fill="#FA6A72" fill-rule="nonzero"></path>
                                <path d="M20.605767,23.5977203 L24.751415,13.9060536 C24.8498646,13.6809193 25.0354217,13.5035149 25.2671571,13.4129714 C25.4988926,13.3224279 25.7577677,13.326184 25.9866811,13.4234112 C26.2088877,13.5180445 26.3837004,13.6955786 26.4726215,13.9169165 C26.5615425,14.1382543 26.5572792,14.3852435 26.4607705,14.6034913 L22.3151225,24.3080974 C22.1642518,24.6432735 21.8255371,24.8587091 21.4525432,24.8567312 C21.3362092,24.8589168 21.2207654,24.8364073 21.1140961,24.7907399 C20.8826423,24.7024486 20.6977083,24.5254325 20.6018262,24.3004026 C20.5059441,24.0753728 20.5073668,23.8216982 20.605767,23.5977203 L20.605767,23.5977203 Z" id="Path" fill="#FBD46E" fill-rule="nonzero"></path>
                                <path d="M34.651981,19.6899989 C34.651981,19.699289 34.6443161,19.7068202 34.6348611,19.7068202 C34.5996676,19.7496578 34.5599367,19.7886958 34.5163388,19.8232755 L29.7622761,24.5617112 C29.3360438,24.9606578 28.6661547,24.9606578 28.2399225,24.5617112 C28.0369366,24.3639356 27.9227563,24.0946899 27.9227563,23.8138095 C27.9227563,23.5329291 28.0369366,23.2636834 28.2399225,23.0659079 L32.2499283,19.0921951 L28.2399225,15.1184824 C28.0369366,14.9207068 27.9227563,14.6514612 27.9227563,14.3705808 C27.9227563,14.0897004 28.0369366,13.8204547 28.2399225,13.6226791 C28.6661547,13.2237325 29.3360438,13.2237325 29.7622761,13.6226791 L34.5163388,18.3611148 C34.5599839,18.3956428 34.5997202,18.4346861 34.6348611,18.4775701 C34.651981,18.4775701 34.651981,18.5112127 34.651981,18.5112127 C34.6829824,18.5596153 34.7111231,18.6097308 34.7362635,18.6613106 C34.7362635,18.6781319 34.7533834,18.6781319 34.7533834,18.6949533 C34.765322,18.7465558 34.782529,18.7968431 34.8047431,18.8450512 C34.8047431,18.8618725 34.821863,18.8618725 34.821863,18.8955151 L34.821863,19.0119704 C34.821863,19.0287917 34.8389829,19.0779617 34.8389829,19.094783 C34.8389829,19.1116043 34.821863,19.1607744 34.821863,19.1775957 L34.821863,19.3069904 C34.821863,19.3238117 34.8047431,19.3238117 34.8047431,19.3406331 C34.7850532,19.3897809 34.7679113,19.4398778 34.7533834,19.490731 C34.7533834,19.5075523 34.7362635,19.5075523 34.7362635,19.5411949 C34.7362635,19.5748375 34.6835869,19.6201257 34.651981,19.6899989 Z" id="Path" fill="#FA6A72" fill-rule="nonzero"></path>
                                <rect id="Rectangle" fill="#FA6A72" fill-rule="nonzero" x="43.3330838" y="1.04550957" width="2.08599315" height="2.04961282"></rect>
                                <rect id="Rectangle" fill="#683FEE" fill-rule="nonzero" x="36.6905652" y="1.04550957" width="2.08599315" height="2.04961282"></rect>
                                <rect id="Rectangle" fill="#FBD46E" fill-rule="nonzero" x="40.0118245" y="1.04550957" width="2.08599315" height="2.04961282"></rect>
                                <rect id="Rectangle" fill="#565072" fill-rule="nonzero" x="0" y="33.9984702" width="46.7504779" height="2.23205941"></rect>
                            </g>
                            <g id="Group-16">
                                <g id="Group-14" fill-rule="nonzero">
                                    <polygon id="Path" fill="#E6E6E6" style="mix-blend-mode: multiply;" points="1.9661539 1.93186359 1.9661539 2.22558967 1.9661539 6.07249555 1.9661539 6.36622162 1.9661539 35.9303338 1.9661539 38.1623932 48.7179487 38.1623932 48.7179487 35.9303338 48.7179487 6.36622162 48.7179487 6.07249555 48.7179487 2.22558967 48.7179487 1.93186359"></polygon>
                                    <rect id="Rectangle" fill="#FFFFFF" x="0" y="0" width="46.7504779" height="36.2305296"></rect>
                                    <polygon id="Path" fill="#F2F5FA" points="46.7517948 36.2305296 2.36543928e-13 36.2305296 46.7517948 4.03855487e-14"></polygon>
                                    <rect id="Rectangle" fill="#F2F2F2" style="mix-blend-mode: multiply;" x="0" y="0.293726079" width="46.7504779" height="4.14063195"></rect>
                                    <rect id="Rectangle" fill="#565072" x="0" y="0" width="46.7504779" height="4.14063195"></rect>
                                    <rect id="Rectangle" fill="#FA6A72" x="43.3330838" y="1.04550957" width="2.08599315" height="2.04961282"></rect>
                                    <rect id="Rectangle" fill="#683FEE" x="36.6905652" y="1.04550957" width="2.08599315" height="2.04961282"></rect>
                                    <rect id="Rectangle" fill="#FBD46E" x="40.0118245" y="1.04550957" width="2.08599315" height="2.04961282"></rect>
                                    <rect id="Rectangle" fill="#565072" x="0" y="33.9984702" width="46.7504779" height="2.23205941"></rect>
                                </g>
                                <g id="Group-15" transform="translate(7.104701, 9.138889)" fill-rule="nonzero">
                                    <rect id="Rectangle" fill="#DBDCEE" x="0.0343523997" y="0" width="33.4592373" height="20.0854701"></rect>
                                    <path d="M12.6760355,20.0507201 C13.0195595,20.0507201 22.432117,9.24348623 22.432117,9.24348623 L32.1881986,20.0507201 L12.6760355,20.0507201 Z" id="Path" fill="#565072"></path>
                                    <path d="M0,20.0507201 C0.412228797,20.0507201 11.4393491,7.33223908 11.4393491,7.33223908 L22.8786982,20.0507201 L0,20.0507201 Z" id="Path" fill="#683FEE"></path>
                                    <ellipse id="Oval" fill="#FBD46E" cx="17.7601907" cy="4.51749327" rx="2.26725838" ry="2.29349658"></ellipse>
                                </g>
                            </g>
                        </g>
                    </g>
                </g>
            </g>
        </g>
    </g>
</svg>