<?xml version="1.0" encoding="UTF-8"?>
<svg width="48px" height="20px" viewBox="0 0 48 20" version="1.1" xmlns="http://www.w3.org/2000/svg" xmlns:xlink="http://www.w3.org/1999/xlink">
    <title>말풍선</title>
    <g id="로그인-후" stroke="none" stroke-width="1" fill="none" fill-rule="evenodd">
        <g id="메인페이지_로그인-후_알람-off_pc(1200)" transform="translate(-305.000000, -42.000000)">
            <g id="말풍선" transform="translate(305.000000, 42.000000)">
                <path d="M39.3401254,0 C44.1228421,2.65492764e-15 48,3.87715793 48,8.65987461 L48,8.65987461 L48,10.0156439 C48,14.7983606 44.1228421,18.6755185 39.3401254,18.6755185 L39.3401254,18.6755185 L12.2136785,18.6755185 C10.5912817,18.6755185 9.0730881,18.2293711 7.77509239,17.4530708 C6.79170319,19.3902105 4.50131556,20.4326027 2.25244078,19.8300185 C1.37001893,19.5935743 0.608696245,19.1345971 0.0174910237,18.5328697 C2.1670211,18.1808758 4.07108211,16.9144883 5.16560599,15.047564 C4.15073409,13.6294922 3.55380394,11.8922783 3.55380394,10.0156439 L3.55380394,10.0156439 L3.55380394,8.65987461 C3.55380394,3.87715793 7.43096186,-3.35011971e-15 12.2136785,0 L12.2136785,0 Z" id="Combined-Shape" fill="#E8ECF3"></path>
                <text id="데모임" font-family="12LotteMartDreamBold" font-size="10" font-weight="normal" fill="#000000">
                    <tspan x="12" y="13">데모임</tspan>
                </text>
            </g>
        </g>
    </g>
</svg>