<?xml version="1.0" encoding="UTF-8"?>
<svg width="155px" height="155px" viewBox="0 0 155 155" version="1.1" xmlns="http://www.w3.org/2000/svg" xmlns:xlink="http://www.w3.org/1999/xlink">
    <title>FAB / 고객의견</title>
    <defs>
        <circle id="path-1" cx="67.5" cy="67.5" r="67.5"></circle>
        <filter x="-9.6%" y="-9.6%" width="125.2%" height="125.2%" filterUnits="objectBoundingBox" id="filter-3">
            <feOffset dx="4" dy="4" in="SourceAlpha" result="shadowOffsetOuter1"></feOffset>
            <feGaussianBlur stdDeviation="5" in="shadowOffsetOuter1" result="shadowBlurOuter1"></feGaussianBlur>
            <feColorMatrix values="0 0 0 0 0   0 0 0 0 0   0 0 0 0 0  0 0 0 0.4 0" type="matrix" in="shadowBlurOuter1"></feColorMatrix>
        </filter>
    </defs>
    <g id="로그인-후" stroke="none" stroke-width="1" fill="none" fill-rule="evenodd">
        <g id="FAB_구글폼-피드백-링크-아이콘_모바일(768)" transform="translate(-557.000000, -1450.000000)">
            <g id="Group" transform="translate(563.000000, 1456.000000)">
                <mask id="mask-2" fill="white">
                    <use xlink:href="#path-1"></use>
                </mask>
                <g id="Oval">
                    <use fill="black" fill-opacity="1" filter="url(#filter-3)" xlink:href="#path-1"></use>
                    <use fill="#683FEE" fill-rule="evenodd" xlink:href="#path-1"></use>
                </g>
                <g id="iconfinder_ic_feedback_48px_3669434" mask="url(#mask-2)">
                    <g transform="translate(18.000000, 55.666667)">
                        <polygon id="Path" fill="none" points="0 0 74.6666667 0 74.6666667 74.6666667 0 74.6666667"></polygon>
                        <path d="M61.5,4 L9.5,4 C5.90875,4 3.0325,6.90875 3.0325,10.5 L3,69 L16,56 L61.5,56 C65.09125,56 68,53.09125 68,49.5 L68,10.5 C68,6.90875 65.09125,4 61.5,4 Z M38.75,43 L32.25,43 L32.25,36.5 L38.75,36.5 L38.75,43 Z M38.75,30 L32.25,30 L32.25,17 L38.75,17 L38.75,30 Z" id="Shape" fill="#FFFFFF" fill-rule="nonzero"></path>
                    </g>
                </g>
                <text id="고객의견" mask="url(#mask-2)" font-family="SpoqaHanSansNeo-Bold, Spoqa Han Sans Neo" font-size="18.6666667" font-weight="bold" fill="#FFFFFF">
                    <tspan x="44.32" y="45.6666667">고객의견</tspan>
                </text>
            </g>
        </g>
    </g>
</svg>