<?xml version="1.0" encoding="UTF-8"?>
<svg width="17px" height="14px" viewBox="0 0 17 14" version="1.1" xmlns="http://www.w3.org/2000/svg" xmlns:xlink="http://www.w3.org/1999/xlink">
    <title>Shape</title>
    <g id="로그인-후" stroke="none" stroke-width="1" fill="none" fill-rule="evenodd">
        <g id="팀메이킹_프로젝트-상세-조회_PC(1200)" transform="translate(-398.000000, -375.000000)" fill="#FFDD05" fill-rule="nonzero">
            <g id="card-/-지원자-지원내용-/-blue" transform="translate(351.000000, 364.000000)">
                <g id="iconfinder_Crown_728988" transform="translate(47.000000, 11.000000)">
                    <path d="M15.3,3.23076923 C14.3608917,3.23076923 13.6,3.95432692 13.6,4.84615385 C13.6,5.07230769 13.6498667,5.28675 13.7378417,5.48248077 L11.3333333,6.46153846 L9.32180833,3.02144231 C9.843,2.74494231 10.2,2.22223077 10.2,1.61538462 C10.2,0.723557692 9.43910833,0 8.5,0 C7.56089167,0 6.8,0.723557692 6.8,1.61538462 C6.8,2.22223077 7.157,2.74494231 7.67819167,3.02144231 L5.66666667,6.46153846 L3.26215833,5.48248077 C3.35013333,5.28675 3.4,5.07230769 3.4,4.84615385 C3.4,3.95432692 2.63910833,3.23076923 1.7,3.23076923 C0.760891667,3.23076923 0,3.95432692 0,4.84615385 C0,5.73798077 0.760891667,6.46153846 1.7,6.46153846 C1.83175,6.46153846 1.95811667,6.44363462 2.08179167,6.41738462 L3.4,11.8461538 L3.4,12.9230769 C3.4,13.5183462 3.90745,14 4.53333333,14 L12.4666667,14 C13.09255,14 13.6,13.5183462 13.6,12.9230769 L13.6,11.8461538 L14.918775,6.41738462 C15.0416,6.44471154 15.16825,6.46153846 15.3,6.46153846 C16.2391083,6.46153846 17,5.73798077 17,4.84615385 C17,3.95432692 16.2391083,3.23076923 15.3,3.23076923 Z" id="Shape"></path>
                </g>
            </g>
        </g>
    </g>
</svg>