<?xml version="1.0" encoding="UTF-8"?>
<svg width="287px" height="286px" viewBox="0 0 287 286" version="1.1" xmlns="http://www.w3.org/2000/svg" xmlns:xlink="http://www.w3.org/1999/xlink">
    <title>ic / 글 없음</title>
    <g id="ic-/-글-없음" stroke="none" stroke-width="1" fill="none" fill-rule="evenodd">
        <path d="M156.399653,279.941476 C156.298269,279.941476 156.215895,267.332513 156.215895,251.781505 C156.215895,236.225568 156.298269,223.619422 156.399653,223.619422 C156.501036,223.619422 156.582706,236.225568 156.582706,251.781505 C156.582706,267.332513 156.501036,279.941476 156.399653,279.941476" id="Fill-2" fill="#E0E0E0"></path>
        <polygon id="Fill-4" fill="#FAFAFA" points="162.932752 273.821347 168.553894 273.821347 168.553894 267.465461 162.932752 267.465461"></polygon>
        <path d="M41.2106645,211.688087 C44.9526949,209.757238 49.3593492,209.505848 53.5139534,210.193123 C55.7457947,210.561406 58.0726828,211.229669 59.5913205,212.90631 C61.1099582,214.582951 61.397915,217.53415 59.653981,218.975597 C58.6162101,219.832578 57.1686815,219.962851 55.8218322,219.947359 C52.5698212,219.909334 48.9608565,219.336839 46.3629088,221.294446 C44.8801776,222.410564 43.8938024,224.26677 42.1210023,224.816027 C40.387629,225.353313 38.4303676,224.329442 37.5115812,222.76406 C36.5920908,221.199383 36.5611126,219.243184 36.9898796,217.47852 C36.9898796,217.47852 37.4411762,213.633723 41.2106645,211.688087" id="Fill-13" fill="#EBEBEB"></path>
        <path d="M32.6372963,195.134475 C34.9254616,198.403256 39.3729509,197.320939 41.4351159,195.325306 C43.4972809,193.330377 44.3688959,190.439034 45.1623612,187.681483 C46.9745881,181.380522 48.8023042,174.771133 47.4547508,168.355392 C47.0513297,166.436514 46.3346059,164.52327 44.9870525,163.100836 C43.6387951,161.676993 41.5667734,160.830574 39.6721725,161.331243 C37.4297705,161.924159 36.0357498,164.120481 35.028253,166.210474 C32.0677191,172.352291 30.4997978,179.161666 30.4765642,185.9809 C30.4660034,189.16518 30.8412625,192.505788 32.6372963,195.134475" id="Fill-14" fill="#EBEBEB"></path>
        <path d="M26.3534311,199.825057 C28.8380266,196.87597 29.3090366,192.574164 28.2036767,188.879356 C27.0983169,185.184548 24.6010485,182.041813 21.7221845,179.475799 C18.3469646,176.466858 14.380342,174.126179 10.1159059,172.626285 C8.43744864,172.036186 6.6667607,171.570727 4.89607277,171.739025 C3.12468079,171.908027 1.34131994,172.8143 0.515468271,174.390245 C-0.706059984,176.719656 0.464776609,179.546216 1.73136412,181.85239 C3.96320537,185.914073 6.51468572,189.800417 9.35482692,193.462833 C11.640176,196.409102 14.2571331,199.315234 17.7393687,200.646829 C21.2216043,201.979129 24.8390176,201.822098 26.685039,199.406777" id="Fill-15" fill="#EBEBEB"></path>
        <path d="M32.4822643,244.443235 C32.5252114,244.44604 32.5949124,243.916501 32.6892552,242.958118 C32.7941588,241.876505 32.9265204,240.519559 33.0835237,238.904885 C33.2729134,237.198668 33.5214434,235.169235 33.9952696,232.958124 C34.4676877,230.754056 35.2069411,228.364789 36.1560017,225.941722 C37.1388567,223.532034 38.3378553,221.342753 39.7389166,219.591469 C41.1301211,217.832439 42.74803,216.55929 44.2687799,215.824835 C45.7838973,215.076297 47.1434195,214.772093 48.0833275,214.637595 C49.0302759,214.539715 49.5611302,214.465777 49.5618343,214.422822 C49.5618343,214.381276 49.0302759,214.374234 48.0572776,214.400288 C47.0927279,214.464368 45.6768816,214.708717 44.0793902,215.435426 C42.4769704,216.145939 40.7604944,217.438805 39.301701,219.234452 C37.8302347,221.021649 36.5882889,223.260222 35.5878327,225.711456 C34.6218749,228.177478 33.8931822,230.591391 33.4418856,232.844048 C32.9927012,235.093184 32.7864142,237.145151 32.6519405,238.864747 C32.5230992,240.585751 32.4745197,241.980019 32.451286,242.94333 C32.4294605,243.906642 32.4407253,244.441111 32.4822643,244.443235" id="Fill-16" fill="#E0E0E0"></path>
        <path d="M32.7617021,241.324644 C32.7828236,241.323234 32.7954965,241.085927 32.801833,240.635255 C32.7997208,240.116982 32.7983127,239.464916 32.7962006,238.664268 C32.7912722,236.953826 32.7919763,234.477946 32.8842069,231.421825 C33.0348738,225.309584 33.5615038,218.730474 34.5781533,209.455076 C35.5405908,200.733161 36.8325242,190.583178 38.1955667,183.984351 C38.4877478,182.48305 38.782041,181.132441 39.0594371,179.950835 C39.3241602,178.765004 39.5494565,177.743246 39.7677122,176.91584 C39.9542857,176.137726 40.1070648,175.503264 40.2274575,175.000483 C40.3267286,174.560373 40.3689717,174.325883 40.3485542,174.320822 C40.3281367,174.314616 40.2464668,174.537136 40.1091769,174.967387 C39.95851,175.463126 39.7698244,176.087025 39.5367836,176.855281 C39.2833253,177.674237 39.0235305,178.689657 38.726421,179.870559 C38.4166386,181.04794 38.0920712,182.395028 37.771728,183.893513 C36.4227666,189.874074 34.9942474,198.231226 33.9684453,207.528453 C32.9496836,216.822863 32.4913465,225.285642 32.4505116,231.414079 C32.4139009,234.477946 32.4793777,236.958756 32.5575273,238.669902 C32.6068109,239.470549 32.6462377,240.122615 32.67792,240.63948 C32.7124185,241.090152 32.7405805,241.325347 32.7617021,241.324644" id="Fill-17" fill="#E0E0E0"></path>
        <path d="M32.8022554,225.002072 C32.8452025,224.999958 32.8374579,224.269024 32.7881744,222.943062 C32.7121369,221.619916 32.5304918,219.707376 32.1573448,217.365289 C31.7623723,215.028131 31.2111004,212.25368 30.3437098,209.238402 C29.9684507,207.859626 29.0855709,204.557044 26.9466643,199.622184 C24.1276447,192.935335 20.299016,187.468118 16.9681514,184.082443 C16.1866549,183.183211 15.316448,182.534666 14.6208458,181.8995 C14.2603717,181.594592 13.9421407,181.291796 13.6175733,181.050968 C13.2915977,180.826336 12.9881518,180.617196 12.7072355,180.422844 C11.6110283,179.672897 10.997096,179.277151 10.9745663,179.313064 C10.8759992,179.447561 13.4295917,180.950271 16.6541447,184.381718 C19.8660248,187.806122 23.5883417,193.235314 26.3834236,199.865828 C27.9421923,203.462052 29.0292468,206.670274 29.8008865,209.39332 C30.6915109,212.379024 31.2836177,215.126011 31.73069,217.439932 C32.1559367,219.758077 32.4016505,221.6509 32.5502052,222.962778 C32.67271,224.275361 32.7600123,225.003479 32.8022554,225.002072" id="Fill-18" fill="#E0E0E0"></path>
        <polygon id="Fill-19" fill="#EBEBEB" points="15.9363648 251.31513 17.571875 273.722692 46.3527704 273.722692 47.9882806 251.31513"></polygon>
        <polygon id="Fill-20" fill="#EBEBEB" points="13.1564904 251.3152 51.4223591 251.3152 51.4223591 242.483433 13.1564904 242.483433"></polygon>
        <polygon id="Fill-21" fill="#E0E0E0" points="13.1562088 272.865359 13.1562088 275.313776 14.9543547 275.313776 50.7898398 275.313776 50.7898398 272.865359"></polygon>
        <polygon id="Fill-22" fill="#E0E0E0" points="16.7167348 279.350813 14.9544955 275.042669 49.4191936 275.042669 47.362661 279.350813"></polygon>
        <path d="M47.4536244,258.638835 C47.4599608,258.643764 47.4141975,258.713477 47.3198547,258.844454 C47.2050944,258.995851 47.0635802,259.183162 46.8896796,259.414836 C46.4806261,259.938038 45.9194975,260.656297 45.2126304,261.560458 L45.1380011,261.656226 L45.0661879,261.556937 C44.0122237,260.09859 42.604122,258.151545 40.9467862,255.85875 L41.1840514,255.85875 C39.9582988,257.593838 38.5938482,259.5268 37.1287184,261.602004 L37.0012852,261.782273 L36.8590669,261.612567 C35.3622548,259.831003 33.7373054,257.897338 32.0496954,255.889734 L32.3270915,255.885509 C32.2433094,255.990431 32.1531909,256.103804 32.0623683,256.21788 C30.5704845,258.088874 29.1271803,259.898604 27.7620256,261.611159 L27.6183993,261.790723 L27.4860377,261.603413 C26.0258362,259.536658 24.6613856,257.606514 23.4285925,255.861567 L23.6644496,255.87213 C21.6649451,258.151545 19.9688866,260.083802 18.6678006,261.566796 L18.5783861,261.668197 L18.5107972,261.55412 C17.8525097,260.447157 17.3272877,259.564121 16.9463962,258.92473 C16.7830564,258.639539 16.6506948,258.409273 16.5450872,258.22478 C16.4563768,258.064932 16.4148378,257.979727 16.4225824,257.975501 C16.4303269,257.970572 16.487355,258.045919 16.5901465,258.197317 C16.7070189,258.374065 16.8534615,258.59588 17.0344026,258.870508 C17.4335994,259.499337 17.9855753,260.365472 18.6762492,261.452015 L18.5206539,261.440044 C19.8013225,259.938742 21.469923,257.981839 23.4370412,255.675665 L23.5609541,255.530605 L23.6736022,255.687636 C24.9176601,257.424132 26.2940796,259.346531 27.766954,261.403427 L27.4916701,261.395681 C28.8540085,259.681014 30.2937926,257.867763 31.7821561,255.994656 C31.8729787,255.881284 31.9630972,255.767912 32.0468792,255.662286 L32.1834651,255.490467 L32.3242753,255.659469 C34.0069568,257.671298 35.6276819,259.609188 37.1202698,261.393568 L36.8506183,261.404131 C38.3305332,259.339489 39.7090648,257.416386 40.9467862,255.690453 L41.0671789,255.522155 L41.1840514,255.690453 C42.8061846,258.007894 44.1847162,259.976064 45.2161507,261.449902 L45.0697081,261.444973 C45.8047372,260.56405 46.3883954,259.863395 46.8136421,259.354277 C47.0030318,259.134574 47.1572189,258.956418 47.2804278,258.812766 C47.3888517,258.692352 47.4472879,258.633201 47.4536244,258.638835" id="Fill-23" fill="#F5F5F5"></path>
        <path d="M48.3886743,251.167253 C48.3886743,251.266542 41.1770813,251.346818 32.2835107,251.346818 C23.3857158,251.346818 16.176235,251.266542 16.176235,251.167253 C16.176235,251.067964 23.3857158,250.988392 32.2835107,250.988392 C41.1770813,250.988392 48.3886743,251.067964 48.3886743,251.167253" id="Fill-24" fill="#F5F5F5"></path>
        <path d="M287,280.529462 C287,280.631567 224.704577,280.713252 147.877683,280.713252 C71.0229174,280.713252 8.74110577,280.631567 8.74110577,280.529462 C8.74110577,280.428061 71.0229174,280.346376 147.877683,280.346376 C224.704577,280.346376 287,280.428061 287,280.529462" id="Fill-46" fill="#263238"></path>
        <g id="Group-164" transform="translate(28.497122, 17.374317)">
            <path d="M60.4112993,4.72245496 C63.7161141,8.73343752 65.5494626,13.9309555 65.4931385,19.1284734 C65.4607522,22.0979807 64.9137046,25.3738042 66.6414455,27.7898297 C67.9523882,29.6235022 70.3426409,30.5417468 71.4078698,32.5282253 C72.6892424,34.9174922 71.5972595,37.9355875 72.3850924,40.5290652 C73.5024212,44.2069728 77.8091003,45.7441875 80.3626928,48.6165186 C82.5769328,51.1071867 83.396448,54.751998 82.5044156,57.9637416 C81.6123831,61.174781 79.0524542,63.8626182 75.9032346,64.9519774 C74.2121044,65.5371471 72.2787808,65.6631944 70.6777691,64.8646596 C68.9500283,64.0041574 67.8833912,62.2373816 67.0181127,60.5121521 C65.3178298,57.121548 50.4123689,38.772852 49.5682119,35.0752274" id="Fill-48" fill="#263238"></path>
            <path d="M49.5679303,0.396987718 C43.4729619,-0.584632661 37.6145547,3.46296701 35.0468812,9.07806091 C32.4785036,14.6931548 32.4080985,21.0793207 32.2187088,27.2514173 C32.0293191,33.4235138 31.5963278,39.8660137 28.4457002,45.1769039 C26.4468998,48.5477911 23.3504841,51.503919 22.865393,55.3930792 C22.4302896,58.874522 24.2326598,62.381315 23.6342166,65.8395199 C23.1132189,68.8491652 20.8201253,71.4686973 20.9102438,74.5220015 C21.0200757,78.1956841 24.7980127,80.9637972 28.471046,81.0623817 C32.1440794,81.1609663 35.5763274,79.235751 38.4558955,76.9528146 C43.1286811,73.2495567 46.9164747,68.4358143 49.4172634,63.0221145" id="Fill-50" fill="#263238"></path>
            <path d="M39.540345,14.935039 C38.7349108,8.50591847 43.3851668,2.63027971 49.9124224,2.00849291 C56.0644189,1.42191488 61.5320779,6.00327943 62.4536805,12.1155211 C63.2619309,17.4728868 63.9568291,22.8816574 63.9321873,24.8456023 C63.8568539,30.769125 60.3915155,33.0752991 58.986934,33.7675035 C58.6665909,33.9252387 57.782303,34.1048034 57.4281654,34.1555041 C57.4063398,34.1583208 57.3908507,34.179446 57.3957791,34.2012755 L58.7109461,41.0007922 C59.3065731,45.4561094 56.8205695,49.4290665 52.3737842,50.0776119 C47.9115098,50.7282699 44.4236418,47.3066821 43.7428246,42.8485482 L39.540345,14.935039 Z" id="Fill-52" fill="#FFBE9D"></path>
            <path d="M61.2428538,14.7101959 C61.1449907,14.8489184 60.3627902,14.4292299 59.3609258,14.5785151 C58.3576534,14.7123084 57.6972536,15.3355035 57.5705245,15.2284689 C57.5092721,15.1819933 57.5944622,14.9453904 57.8810109,14.6658328 C58.1626313,14.3876836 58.6674357,14.0827757 59.2919289,13.9940496 C59.917126,13.9067318 60.4761424,14.060242 60.8126787,14.2517777 C61.1548475,14.4433134 61.2914333,14.6482284 61.2428538,14.7101959" id="Fill-54" fill="#263238"></path>
            <path d="M52.3277393,16.8763799 C52.2298762,17.0151025 51.4469717,16.595414 50.4458113,16.7446992 C49.4425388,16.8784925 48.7821391,17.5016876 48.65541,17.394653 C48.5941575,17.3481774 48.6786436,17.1115745 48.9666005,16.8320169 C49.2475167,16.5531635 49.7523212,16.2489597 50.3768143,16.1602337 C51.0020115,16.0729159 51.5610279,16.2264261 51.8975642,16.4179618 C52.2397329,16.6094975 52.3763188,16.8137083 52.3277393,16.8763799" id="Fill-56" fill="#263238"></path>
            <path d="M55.982749,22.2515613 C55.969372,22.1952273 56.5769679,21.9966499 57.5682715,21.7206131 C57.8203217,21.6565332 58.0547707,21.5706238 58.0723719,21.3889466 C58.1061664,21.1952984 57.9590198,20.9354577 57.7914556,20.6551959 C57.4605517,20.0707304 57.1134547,19.4580979 56.7501644,18.8165942 C55.2941872,16.1935411 54.2007962,14.0218645 54.3071079,13.9641221 C54.4127155,13.9063797 55.678599,15.9858094 57.1345762,18.6081583 C57.4873057,19.2559996 57.824546,19.8728571 58.1455932,20.4636602 C58.2849953,20.7404011 58.4997308,21.0460132 58.4251014,21.4488015 C58.3842665,21.6501956 58.2159983,21.816381 58.058995,21.884686 C57.9019916,21.9586244 57.7583653,21.9825663 57.6330442,22.0086208 C56.6248434,22.2114233 55.9947178,22.3078953 55.982749,22.2515613" id="Fill-58" fill="#263238"></path>
            <path d="M57.3877529,34.1609966 C57.3877529,34.1609966 53.5633486,35.0433283 48.2977521,32.8385554 C48.2977521,32.8385554 50.5711324,37.733278 57.7418905,35.9932608 L57.3877529,34.1609966 Z" id="Fill-60" fill="#EB996E"></path>
            <path d="M51.8234277,14.249806 C51.7642874,14.5364054 50.7441177,14.5533056 49.5887702,14.8666636 C48.4270863,15.1567838 47.5287174,15.6391439 47.3372155,15.4180329 C47.2506173,15.3109982 47.3787545,15.0300323 47.7237395,14.7103367 C48.0652041,14.3913453 48.6354853,14.052637 49.3296795,13.8709597 C50.0245777,13.6906908 50.6877936,13.7082952 51.1412024,13.8202591 C51.5981314,13.9315188 51.8473654,14.1139002 51.8234277,14.249806" id="Fill-62" fill="#263238"></path>
            <path d="M60.4205928,12.4883115 C60.2769664,12.7418146 59.5524981,12.6059088 58.7196059,12.7164643 C57.8838975,12.7967403 57.2087127,13.0924939 57.0122826,12.8784246 C56.9242762,12.7727983 57.0017218,12.5284495 57.2777097,12.2686088 C57.5487693,12.0094723 58.0296361,11.7594901 58.6034375,11.6940018 C59.1765349,11.6285135 59.7010528,11.7630109 60.0242122,11.9545466 C60.3515958,12.1453781 60.4818452,12.365785 60.4205928,12.4883115" id="Fill-64" fill="#263238"></path>
            <path d="M50.1554607,18.1709358 C50.2244577,18.6061162 50.6490004,18.906799 51.1052254,18.8434232 C51.5600422,18.7800475 51.8740489,18.376555 51.805756,17.9413747 C51.736759,17.5061943 51.3115123,17.2048073 50.8566954,17.2681831 C50.4004704,17.3315589 50.0864638,17.7357555 50.1554607,18.1709358" id="Fill-66" fill="#263238"></path>
            <path d="M59.0317117,16.2502273 C59.1000046,16.6854076 59.5252513,16.9860905 59.9814763,16.9227147 C60.4362931,16.8593389 60.7502998,16.4558464 60.6813028,16.0206661 C60.6130099,15.5854858 60.1877632,15.2840987 59.7329463,15.3474745 C59.2767214,15.4108503 58.9627147,15.8150469 59.0317117,16.2502273" id="Fill-68" fill="#263238"></path>
            <path d="M57.5593301,24.2038169 C56.9144195,24.0172105 56.3589233,24.3432436 56.0977205,24.8115202 C55.8358136,25.2790926 55.8984741,25.919188 56.2751413,26.3001468 C56.6518085,26.6818098 57.3220649,26.7416647 57.7374549,26.4036606 C58.0197793,26.1740994 58.1612936,25.8079283 58.1979042,25.4459822 C58.2309946,25.1114989 58.1760786,24.7537779 57.9697917,24.4890079 C57.7642089,24.2235338 57.3819093,24.0812904 57.0749431,24.2179004" id="Fill-70" fill="#EB996E"></path>
            <path d="M61.6726065,7.32290396 C61.2142693,5.09489328 59.6801425,3.19432413 57.8129996,1.89582486 C56.226773,0.793086329 54.3511815,0.0628565347 52.4192659,0.00370580884 C50.4887584,-0.055444917 48.5096714,0.593804717 47.1142426,1.93032945 C46.0828081,2.91899158 45.5547699,4.31818792 45.5068945,5.74484709 L45.6188386,4.76041001 C45.3294737,5.56950744 45.3301777,6.44690987 45.6308074,7.2419238 C45.6315115,7.24333215 45.6315115,7.24544467 45.6322155,7.24685302 L45.6315115,7.24333215 C45.7948513,7.67499161 45.9912815,8.1059469 46.164478,8.53901471 C46.6566096,9.76920898 47.6113025,10.8085717 48.7962201,11.4028957 C49.3418596,11.6775241 49.9466393,11.8606096 50.5563473,11.8317385 C51.1667594,11.8028673 51.7813958,11.5402099 52.1524306,11.0543289 C52.6811728,10.3607162 52.6199204,9.39881276 52.5333221,8.53056461 C53.057136,9.34881632 53.6133362,10.1980517 54.455381,10.6825243 C55.2967218,11.1662928 56.5133217,11.1493926 57.1054285,10.379729 C57.6792299,9.63400732 57.4525256,8.56295667 57.1202136,7.68344171 C57.6581084,8.50380595 58.4290441,9.17065996 59.3189644,9.58330669 C59.811096,9.81286784 60.3919379,9.96285719 60.8904059,9.74737954 C61.3128365,9.56429396 61.5979771,9.1410846 61.7056969,8.69322911 C61.8134166,8.24537361 61.7655412,7.77428033 61.6726065,7.32290396" id="Fill-72" fill="#263238"></path>
            <path d="M56.5857685,9.1624251 C56.5216999,9.16453364 56.5322607,8.3272692 56.2619051,7.02876993 C55.9894375,5.7521001 55.3431188,3.94800296 53.8301134,2.61429493 C53.0845236,1.95589101 52.2269896,1.50028959 51.3940974,1.29889545 C50.5597972,1.09257209 49.7656278,1.11721822 49.1270536,1.24185725 C47.8323041,1.50521882 47.2049948,2.11996386 47.166976,2.05517973 C47.1543031,2.04109623 47.2887768,1.8763192 47.5985592,1.65168728 C47.9062294,1.42846371 48.4025853,1.15946874 49.0707296,0.989058317 C49.7360576,0.824281295 50.5766944,0.768651446 51.471543,0.970045584 C52.3670957,1.16721467 53.2858821,1.64394135 54.073715,2.33966656 C55.6726146,3.75083387 56.3055563,5.66407818 56.5160675,6.98018183 C56.6244913,7.6512609 56.647725,8.19981347 56.6427967,8.57654726 C56.6378683,8.9546894 56.6082982,9.1624251 56.5857685,9.1624251" id="Fill-74" fill="#455A64"></path>
            <path d="M121.42822,91.2624315 L94.3567599,80.5286873 C94.3567599,80.5286873 80.4883659,62.3391349 80.7777308,61.9863431 L71.0435235,72.6496698 L85.1921297,91.8060548 L117.977667,99.4822699 L133.504804,99.6076131 C132.303694,93.6347981 121.42822,91.2624315 121.42822,91.2624315" id="Fill-76" fill="#FFBE9D"></path>
            <path d="M62.4237583,39.3735135 L58.738052,37.9447418 L42.8117174,39.9643166 L42.8117174,42.7782011 L42.3554924,42.8345351 C42.3554924,42.8345351 37.408831,43.733767 32.5994595,46.6215899 C26.7762548,50.1185245 23.7495401,56.8631156 24.828146,63.5710896 C25.4758728,67.5989724 26.7311955,72.4951033 29.1496103,75.3244797 C33.7752245,80.7360669 37.9995297,74.048514 37.9995297,74.048514 C37.9995297,74.048514 40.9023314,80.6705786 40.7354714,83.8034545 C40.5960693,86.4265076 39.4357935,91.8923163 39.0626465,93.5992372 C38.999986,93.8872449 39.1886716,94.16469 39.4787406,94.2182073 L73.0746399,100.431146 L73.2386837,92.2176453 L72.1706385,58.4369474 L70.6879074,45.3174573 C70.6879074,45.3174573 70.7350788,39.0495929 62.4237583,39.3735135" id="Fill-78" fill="#999CDA"></path>
            <polygon id="Fill-80" fill="#999CDA" points="70.1724014 43.1347251 82.9819029 61.6460856 72.6689657 74.2106856"></polygon>
            <path d="M72.9184814,82.0899152 C72.8931355,82.0892102 72.8762383,81.6638883 72.8684938,80.895633 C72.857933,80.0654103 72.844556,78.9690094 72.8276588,77.6430473 C72.761478,74.8995803 72.6065868,71.1054837 72.0602434,66.9557786 C71.529389,62.8025527 70.7225467,59.092253 70.1050941,56.417091 C69.8016482,55.1263376 69.550302,54.0581037 69.3609123,53.2497104 C69.1856037,52.5018763 69.0997095,52.0850045 69.1243513,52.0778894 C69.148993,52.0716252 69.2806505,52.476526 69.4989063,53.2137975 C69.7178661,53.9510691 70.0149756,55.023528 70.3571443,56.3565319 C71.0400737,59.0197229 71.8905671,62.735656 72.4235336,66.9085989 C72.9726933,71.0780209 73.0867495,74.890426 73.0867495,77.6402306 C73.0733726,79.0161891 73.0536591,80.1294903 73.010712,80.8977456 C72.9755095,81.6660008 72.9438272,82.0906185 72.9184814,82.0899152" id="Fill-82" fill="#263238"></path>
            <path d="M41.3981256,53.9435344 C41.3960119,54.0026851 40.4258298,53.9907141 38.8663571,54.074511 C37.3068844,54.1561953 35.1567131,54.3695604 32.8256007,54.8505122 C30.4937842,55.335689 28.4358435,55.9933887 26.9721217,56.5384204 C25.5076959,57.0813395 24.622704,57.4777902 24.5973582,57.4242729 C24.5860934,57.4010351 24.7959005,57.2785086 25.1866487,57.075002 C25.5745808,56.8686786 26.1519025,56.6003878 26.8777789,56.2968883 C28.3274197,55.6863683 30.3952171,54.9814888 32.7509713,54.4913828 C35.1067255,54.0055018 37.2850589,53.8308663 38.8572044,53.8146703 C39.6436293,53.805516 40.2800913,53.8224162 40.7187149,53.857625 C41.1573386,53.8886087 41.3988281,53.9181841 41.3981256,53.9435344" id="Fill-84" fill="#FAFAFA"></path>
            <path d="M71.0704084,62.4187771 C71.0773884,62.4659569 70.4704965,62.6131295 69.4728564,62.7659356 C68.4766245,62.9187416 67.0882361,63.0666184 65.5491809,63.1201357 C64.0094217,63.1715405 62.6139929,63.1194316 61.6093123,63.0349305 C60.6039276,62.9511337 59.9885872,62.8455074 59.9927899,62.7983276 C59.9970358,62.7448103 60.6194168,62.7581896 61.6219852,62.775794 C62.6252577,62.7941026 64.0094217,62.8046652 65.536508,62.7532604 C67.0635944,62.7004472 68.4435341,62.594821 69.4425822,62.5082074 C70.4416304,62.422298 71.0618992,62.365964 71.0704084,62.4187771" id="Fill-86" fill="#FAFAFA"></path>
            <path d="M76.9510031,54.0404993 C77.0157758,54.1088043 75.8822539,55.2418224 74.2030926,56.2642849 C72.5274515,57.2944934 71.0024773,57.7874161 70.9722032,57.69869 C70.9313682,57.597993 72.3690401,56.9621227 74.0115908,55.9509269 C75.6590698,54.9495896 76.879894,53.958815 76.9510031,54.0404993" id="Fill-88" fill="#FAFAFA"></path>
            <path d="M71.7736947,45.4573769 C71.8363552,45.5193443 70.3261661,46.8784027 68.0429291,47.8360811 C65.7660286,48.8099555 63.7397702,48.9493823 63.7390662,48.8606562 C63.7193527,48.7479881 65.6787263,48.450122 67.9000068,47.498077 C70.1290318,46.5650447 71.7061058,45.3651299 71.7736947,45.4573769" id="Fill-90" fill="#FAFAFA"></path>
            <path d="M72.472958,76.7495192 C72.4828147,76.772757 72.2455496,76.8959877 71.8076299,77.0994944 C71.3711184,77.3065219 70.7233916,77.5712918 69.9116209,77.869158 C68.2908958,78.4655945 65.9837211,79.1310401 63.3716924,79.5352367 C60.7582556,79.9338 58.3574421,79.9915423 56.6318135,79.9091538 C55.7686471,79.8690158 55.0716367,79.8105693 54.5928822,79.7436726 C54.1134235,79.6817052 53.8508125,79.6352296 53.8536063,79.6098793 C53.8592611,79.5500244 54.9216739,79.6359338 56.6381499,79.6500173 C58.3546259,79.6655092 60.7279814,79.5676288 63.3160724,79.1725865 C65.9020512,78.7726149 68.195849,78.1536448 69.8278389,77.6234008 C71.4612369,77.0952693 72.4490203,76.6938894 72.472958,76.7495192" id="Fill-92" fill="#FAFAFA"></path>
            <path d="M72.7337454,86.2967985 C72.7391596,86.3087694 72.6356641,86.3665118 72.4336015,86.4672089 C72.190704,86.5819895 71.8971148,86.7221204 71.5415691,86.8904183 C70.7671131,87.2579978 69.6202143,87.7347244 68.1839505,88.271306 C66.7490948,88.8149294 65.0093851,89.3761571 63.0528278,89.9134428 C61.0913421,90.4324201 58.9108965,90.9161885 56.5980894,91.2823596 C54.281058,91.6344473 52.0562573,91.8344331 50.0292948,91.934426 C48.0023324,92.014702 46.1732082,92.006956 44.6418976,91.9245675 C43.110587,91.8478124 41.8728655,91.7407778 41.0237802,91.625293 C40.6344401,91.5724799 40.3119848,91.528821 40.0458535,91.4922039 C39.8226694,91.4576993 39.706501,91.4337573 39.7078965,91.4210822 C39.7100213,91.408407 39.8290059,91.408407 40.0543021,91.4189697 C40.3211374,91.436574 40.6457049,91.4576993 41.0371571,91.4830496 C41.8890587,91.5548755 43.125372,91.6217721 44.6510503,91.665431 C46.1781366,91.7147233 47.997404,91.6957106 50.0131017,91.5964218 C52.0273912,91.4781204 54.2381109,91.2696845 56.5410613,90.9197094 C58.8418995,90.5556507 61.0110803,90.0845574 62.9662295,89.5867055 C64.9171545,89.0698408 66.6568642,88.5374843 68.0966482,88.0276614 C69.5378403,87.524176 70.6953,87.0854748 71.4859491,86.7587375 C71.8513515,86.6157899 72.1533893,86.4974884 72.4033274,86.3996081 C72.6145426,86.3214446 72.7285989,86.2855317 72.7337454,86.2967985" id="Fill-94" fill="#FAFAFA"></path>
            <path d="M10.9579215,235.99285 L7.15252658,253.197965 L0.219737688,265.937201 C-0.279434378,266.85615 0.102865244,268.005364 1.05262986,268.441248 C1.58418827,268.685597 2.19600847,268.660247 2.7029251,268.36731 C5.92818212,266.502654 17.759757,259.586948 17.968156,258.312391 C18.2089414,256.836439 23.186581,240.430563 23.186581,240.430563 L10.9579215,235.99285 Z" id="Fill-96" fill="#999CDA"></path>
            <path d="M1.05234824,268.441248 L18.2516069,257.158247 L18.073482,257.882844 C17.9199989,258.50956 17.5510763,259.063041 17.0279665,259.440479 C15.6283134,260.450267 11.7018217,263.156412 2.75474324,268.379985 C2.23444965,268.684189 1.59305931,268.707426 1.05234824,268.441248" id="Fill-98" fill="#FFFFFF"></path>
            <path d="M16.0939022,250.775673 C15.592618,250.966504 15.2933964,251.581249 15.4637767,252.089664 C15.634157,252.598783 16.2558339,252.907915 16.7606384,252.726238 C17.2654428,252.543857 17.6470384,251.817148 17.4210381,251.330563 C17.1943337,250.844682 16.4445195,250.520761 15.9981513,250.818627" id="Fill-100" fill="#FFFFFF"></path>
            <path d="M6.79719211,261.924247 C6.68876828,261.947484 6.52261227,260.95671 5.62353931,260.224367 C4.74558788,259.465971 3.74161134,259.475125 3.74583565,259.364569 C3.74161134,259.318798 3.99084535,259.239226 4.40482726,259.280772 C4.81599297,259.319502 5.38064176,259.517375 5.87206927,259.92791 C6.36138462,260.339852 6.65497383,260.861646 6.76480577,261.260209 C6.87815796,261.660885 6.84295542,261.920021 6.79719211,261.924247" id="Fill-102" fill="#263238"></path>
            <path d="M5.01643625,263.916429 C4.91646103,263.969946 4.50388722,263.27915 3.6815558,262.808761 C2.8690811,262.319359 2.06435096,262.296122 2.06364691,262.183453 C2.03548488,262.083461 2.9479348,261.922909 3.87728195,262.474982 C4.8122615,263.017197 5.11711552,263.892487 5.01643625,263.916429" id="Fill-104" fill="#263238"></path>
            <path d="M9.78631047,259.542796 C9.68633525,259.604763 9.05620972,258.538642 7.84101793,257.694336 C6.63849904,256.831017 5.4240113,256.594414 5.44865308,256.479633 C5.44302067,256.381753 6.77226871,256.455692 8.06420205,257.378865 C9.36528805,258.287251 9.88065329,259.515333 9.78631047,259.542796" id="Fill-106" fill="#263238"></path>
            <path d="M11.3800704,254.410062 C11.3089613,254.500901 10.46058,253.874185 9.24186794,253.527731 C8.02738019,253.16508 6.97552819,253.238315 6.96426338,253.12283 C6.93750945,253.027766 8.04357336,252.769334 9.35029177,253.15663 C10.6591223,253.531956 11.4532917,254.343166 11.3800704,254.410062" id="Fill-108" fill="#263238"></path>
            <path d="M12.6248324,249.38725 C12.5473868,249.47316 11.7370242,248.669696 10.4232653,248.410559 C9.11513878,248.121847 8.05131792,248.533086 8.01470727,248.423938 C7.9956979,248.380984 8.2350752,248.211982 8.68566775,248.081005 C9.13274005,247.94862 9.79595597,247.885244 10.502823,248.031713 C11.207578,248.180294 11.7905321,248.504214 12.1474859,248.804897 C12.5072559,249.10558 12.6593308,249.356266 12.6248324,249.38725" id="Fill-110" fill="#263238"></path>
            <path d="M10.6880588,247.461824 C10.6662332,247.456894 10.6838345,247.216771 10.8232366,246.808349 C10.9633427,246.403448 11.2329942,245.823208 11.7539918,245.239446 C12.0166028,244.966931 12.309488,244.604984 12.8424545,244.497246 C13.1078817,244.441616 13.4507544,244.572592 13.5979011,244.849333 C13.7450477,245.119032 13.7401193,245.41549 13.679571,245.688006 C13.3951344,246.770323 12.2045844,247.592096 10.9450374,247.44774 C9.68549039,247.281555 8.74628653,246.308384 8.49001202,245.251417 C8.44354466,244.982422 8.44354466,244.666952 8.64701536,244.410632 C8.84907796,244.150791 9.22504112,244.119808 9.46019411,244.221913 C9.94950946,244.423307 10.1980394,244.794408 10.4430491,245.084528 C10.9168754,245.703498 11.1590689,246.291484 11.285094,246.70061 C11.410415,247.112553 11.424496,247.351972 11.4026705,247.356902 C11.3322654,247.387181 11.1766701,246.409786 10.2304258,245.256347 C9.98682416,244.984535 9.71224432,244.648643 9.35458648,244.525413 C9.18068592,244.463445 9.00960156,244.497246 8.91103443,244.625406 C8.81176326,244.747932 8.79486604,244.971156 8.84062935,245.184521 C9.06240537,246.052769 9.92345958,246.94003 10.9908007,247.064669 C12.0511013,247.195645 13.0959128,246.471753 13.3331779,245.602801 C13.3866858,245.392957 13.3831655,245.16762 13.3007916,245.014814 C13.2205298,244.864825 13.0600062,244.789478 12.8868097,244.814829 C12.5214073,244.866938 12.2095127,245.171846 11.9532382,245.426053 C10.9246199,246.506258 10.759872,247.497737 10.6880588,247.461824" id="Fill-112" fill="#263238"></path>
            <polygon id="Fill-114" fill="#000000" points="10.5140879 237.859126 9.69105239 241.805324 22.1471203 243.872079 23.1862994 240.43007 10.9576399 235.993061"></polygon>
            <path d="M66.6170853,242.359299 L65.588467,256.107618 C65.588467,256.107618 79.2153715,261.769891 79.2723996,264.329569 L52.5487409,263.293022 L53.2718011,241.805817 L66.6170853,242.359299 Z" id="Fill-116" fill="#999CDA"></path>
            <path d="M57.36987,254.628709 C56.8474642,254.750531 56.4672768,255.318096 56.567252,255.845524 C56.6665232,256.372951 57.2403246,256.763768 57.7655466,256.651804 C58.2900645,256.53984 58.767411,255.872282 58.6089995,255.358938 C58.4512921,254.847003 57.7514656,254.423794 57.2691907,254.658284" id="Fill-118" fill="#FFFFFF"></path>
            <path d="M52.5484592,263.29267 L52.7061666,261.130148 L78.2695496,262.932837 C78.2695496,262.932837 79.4396821,263.496881 79.2728221,264.329921 L52.5484592,263.29267 Z" id="Fill-120" fill="#FFFFFF"></path>
            <path d="M66.0268091,255.98826 C66.0176564,256.119237 65.3628891,256.152333 64.7046015,256.547375 C64.0357532,256.924813 63.6830237,257.477591 63.5647432,257.421257 C63.4450545,257.390977 63.6703508,256.618497 64.475785,256.154445 C65.2769949,255.683352 66.0598994,255.869958 66.0268091,255.98826" id="Fill-122" fill="#263238"></path>
            <path d="M68.7849283,257.256973 C68.8102742,257.384428 68.2364727,257.584414 67.7717991,258.119587 C67.2909324,258.640677 67.1564587,259.232889 67.0262093,259.222326 C66.9030004,259.237818 66.842452,258.470267 67.4331507,257.816088 C68.0175129,257.15698 68.7870405,257.131629 68.7849283,257.256973" id="Fill-124" fill="#263238"></path>
            <path d="M70.2466787,260.674054 C70.1269901,260.697291 69.9706908,260.038183 70.333981,259.336121 C70.6916389,258.631945 71.3175401,258.373513 71.3689358,258.484773 C71.4386369,258.594624 71.0274712,258.962204 70.7381062,259.543852 C70.4360684,260.117051 70.3769281,260.665604 70.2466787,260.674054" id="Fill-126" fill="#263238"></path>
            <path d="M65.9137385,252.829048 C65.8545982,252.945941 65.2624914,252.743138 64.523238,252.764264 C63.7832806,252.770601 63.1996224,252.995937 63.1362578,252.881157 C63.0644446,252.784685 63.6431744,252.322746 64.5147894,252.310071 C65.3857003,252.28965 65.9820314,252.729055 65.9137385,252.829048" id="Fill-128" fill="#263238"></path>
            <polygon id="Fill-130" fill="#000000" points="66.4098127 245.082486 66.2302798 247.532312 53.1004351 246.903483 53.1891455 244.070586"></polygon>
            <path d="M66.0702145,250.051569 C66.0694745,250.105791 65.550589,250.16635 64.7317779,249.993123 C64.3248365,249.905805 63.8467859,249.752999 63.3483179,249.50865 C63.099788,249.386124 62.8456256,249.241063 62.5956876,249.070653 C62.4759989,248.986152 62.3323725,248.900947 62.2035312,248.740395 C62.0648332,248.598856 61.9958362,248.24888 62.1704408,248.043261 C62.3154753,247.843275 62.5611891,247.764408 62.754099,247.767224 C62.9512332,247.768633 63.1089406,247.814404 63.2532711,247.855951 C63.5482684,247.939747 63.8235523,248.049599 64.0748984,248.174238 C64.5761826,248.425628 64.9796038,248.73617 65.2774173,249.031923 C65.8751565,249.629768 66.0673624,250.125508 66.0223031,250.150154 C65.9610507,250.190292 65.675206,249.770603 65.0626818,249.272047 C64.7571237,249.023473 64.3649674,248.764337 63.8953655,248.55238 C63.6602125,248.448162 63.4053461,248.356619 63.1363986,248.285497 C62.8561864,248.200292 62.615401,248.189025 62.5372513,248.312256 C62.5090893,248.359436 62.505569,248.377744 62.5611891,248.46295 C62.6196253,248.541817 62.7308653,248.621389 62.8491459,248.704482 C63.0793705,248.86785 63.3124113,249.010798 63.5405238,249.136141 C63.9981569,249.386124 64.4374846,249.560759 64.8155599,249.682581 C65.5724146,249.925522 66.0751069,249.980447 66.0702145,250.051569" id="Fill-132" fill="#263238"></path>
            <path d="M65.8927578,250.232401 C65.8462904,250.250006 65.604801,249.773279 65.5900159,248.926156 C65.5843835,248.505764 65.647044,247.998757 65.8293932,247.467105 C65.9223279,247.201631 66.0441287,246.931932 66.2018361,246.667866 C66.3686962,246.409434 66.573575,246.062979 67.0818997,246.024954 C67.3466228,246.024954 67.5585421,246.240432 67.626131,246.419996 C67.7078009,246.60449 67.7190657,246.760113 67.7444115,246.915736 C67.7817262,247.229798 67.764125,247.536114 67.7106171,247.81708 C67.6043054,248.383237 67.3529593,248.847289 67.0854199,249.178251 C66.5362603,249.850738 65.9856925,249.985236 65.9765398,249.940873 C65.9357049,249.873272 66.4003784,249.639486 66.8256252,248.988828 C67.0354323,248.668428 67.2269342,248.243106 67.2980433,247.748071 C67.3332458,247.500905 67.3395823,247.238952 67.3029717,246.973478 C67.2719934,246.687583 67.1748344,246.454501 67.0671146,246.479147 C66.934049,246.472105 66.7003041,246.67702 66.5820236,246.89954 C66.435581,247.13403 66.3173004,247.374858 66.2222536,247.612165 C66.0363841,248.088892 65.9455616,248.548014 65.9110631,248.938127 C65.8441783,249.720466 65.964571,250.215501 65.8927578,250.232401" id="Fill-134" fill="#263238"></path>
            <path d="M38.947675,94.1200453 C38.947675,94.1200453 34.7043604,94.3059476 31.9085744,108.757033 C29.1127884,123.208119 7.62233973,240.289939 7.62233973,240.289939 L23.1860882,240.43007 L52.5485296,129.116854 L50.5976047,243.872079 L66.4098831,245.082556 C66.4098831,245.082556 78.2752524,118.129607 78.3879005,110.742103 C78.5265986,101.533603 73.2391765,92.2180678 73.2391765,92.2180678 L38.947675,94.1200453 Z" id="Fill-136" fill="#263238"></path>
            <path d="M60.3401198,92.8829122 C60.439391,92.9033712 58.8242983,101.159123 56.7332672,111.320372 C54.6415321,121.485143 52.8659158,129.706389 52.7666446,129.686006 C52.6673734,129.664843 54.2824661,121.411204 56.3742013,111.246434 C58.4652323,101.085184 60.2408486,92.862529 60.3401198,92.8829122" id="Fill-138" fill="#455A64"></path>
            <path d="M62.7671943,94.9445642 C62.7404404,94.9086512 63.1889208,94.7755621 63.6718997,95.2072216 C63.8936757,95.4149533 64.1126356,95.7607034 64.0964424,96.2036296 C64.0872897,96.6507809 63.7493453,97.0866655 63.2994568,97.2711594 C62.8530886,97.4648076 62.3046329,97.4028402 61.9779533,97.0958197 C61.6505697,96.7986578 61.5555228,96.4007987 61.5618593,96.096595 C61.5900213,95.4494579 61.9983708,95.2220092 62.0054113,95.2656681 C62.0539908,95.3022852 61.7765948,95.5670551 61.82095,96.0895532 C61.8448877,96.3388313 61.9540156,96.643035 62.1969131,96.8380916 C62.4313621,97.0387815 62.8136617,97.076807 63.1572385,96.9338594 C63.4994072,96.7880951 63.7380805,96.4874123 63.759202,96.1796877 C63.7887722,95.8691463 63.6472579,95.5790261 63.4860303,95.3881946 C63.1431575,94.9910397 62.7594498,95.0044191 62.7671943,94.9445642" id="Fill-140" fill="#455A64"></path>
            <path d="M62.0927136,100.667397 C62.083561,100.623034 62.5306333,100.682185 62.7749389,101.253975 C62.8833627,101.523674 62.9319422,101.913787 62.7319918,102.289817 C62.5355616,102.675001 62.0525827,102.902449 61.5886132,102.860903 C61.1239396,102.829919 60.6817957,102.530645 60.547322,102.120111 C60.4072158,101.717322 60.5163437,101.33918 60.6648985,101.089198 C60.9950983,100.562475 61.4463949,100.573742 61.4302017,100.615992 C61.4527314,100.670918 61.0978897,100.758236 60.894419,101.210316 C60.7986681,101.426498 60.7493846,101.728589 60.8627367,101.998288 C60.9662322,102.267987 61.267566,102.467269 61.6167752,102.495436 C61.9659845,102.52149 62.2954803,102.371501 62.4391066,102.120815 C62.5925897,101.872241 62.5911816,101.566629 62.5299292,101.338476 C62.3982717,100.859637 62.0617354,100.718802 62.0927136,100.667397" id="Fill-142" fill="#455A64"></path>
            <path d="M47.1776776,95.0900468 C47.1987991,95.0970885 47.1431791,95.3569292 46.9918082,95.8132348 C46.8425494,96.2702446 46.5792344,96.9180859 46.1715889,97.677891 C45.3689709,99.1939805 43.8721588,101.148771 41.6551026,102.609231 C39.4380464,104.071099 37.051314,104.675985 35.3418785,104.816116 C34.4829364,104.890759 33.7845179,104.877379 33.3050593,104.835129 C32.8263047,104.793583 32.5658059,104.742178 32.5679053,104.719644 C32.5707342,104.651339 33.6310349,104.771049 35.3130124,104.558388 C36.9858372,104.354881 39.2965322,103.725349 41.453744,102.303619 C43.6102519,100.881889 45.1000235,99.0066699 45.9462926,97.5504353 C46.8052347,96.0878632 47.1129049,95.0661048 47.1776776,95.0900468" id="Fill-144" fill="#455A64"></path>
            <path d="M77.4621441,105.360373 C77.447359,105.380794 77.281907,105.280097 76.9946543,105.078703 C76.7024732,104.883647 76.312429,104.554093 75.8660607,104.112575 C74.9690999,103.23306 73.9123196,101.804288 73.2139011,100.002303 C72.5225232,98.197502 72.3472145,96.4279095 72.4218439,95.1744774 C72.4570464,94.5470572 72.5253394,94.0407552 72.6105295,93.7006385 C72.6886792,93.3584093 72.7428911,93.1732112 72.7682369,93.1780445 C72.8337137,93.1901114 72.6837508,93.9492124 72.6809346,95.180815 C72.6738941,96.4096009 72.8851094,98.117226 73.5560698,99.8706225 C74.2347749,101.619794 75.2239663,103.02744 76.0540423,103.933714 C76.8820061,104.844917 77.502979,105.306856 77.4621441,105.360373" id="Fill-146" fill="#455A64"></path>
            <path d="M32.7583638,66.2714611 L39.6735514,66.6538283 C40.110767,68.8959224 41.6287007,72.324552 41.6287007,72.324552 C47.1942228,62.6611543 51.5100546,49.7134829 52.58162,44.5103315 C52.4260248,43.9906502 52.2408594,43.4153389 52.0099307,42.7731311 C51.7437995,42.0316345 51.971912,40.6268047 52.0979371,39.8472826 C52.2845106,38.6882101 52.608374,37.1298701 52.706237,36.4080904 C53.0026425,34.2096551 53.35678,33.8639051 54.1234914,34.1131831 C55.1668948,34.4511873 53.6961326,40.2873922 54.5508503,40.4141438 C55.0098915,40.4817446 55.5717241,38.4825909 55.7343598,36.8418624 C55.8976996,35.201134 56.6390652,30.1543095 57.1811844,29.8177137 C57.9760578,29.324791 58.6695479,30.1050173 58.4681893,31.738704 C58.2654227,33.3928118 58.0091482,38.3241515 58.8758348,38.3903439 C59.7298485,38.4558322 60.4472763,30.0888212 60.4472763,30.0888212 C60.4472763,30.0888212 60.3120986,28.2678239 61.3160751,28.3114828 C63.1261899,28.3903504 61.7117517,37.2115545 61.5568605,38.0474106 C61.4484367,38.6290594 62.3890486,38.7353898 62.4714226,38.1044488 C62.5566127,37.4551991 62.9938283,29.7367336 64.8370335,29.798701 C66.2514717,29.8465849 63.7408263,37.0679027 64.5349957,38.7424316 C65.3298691,40.4155521 65.8811409,33.0569202 67.2322145,33.1583214 C67.7349069,33.1956427 68.1066457,33.2942272 67.182931,37.45872 C66.6865751,39.6972933 65.2277817,43.8124938 63.9527456,47.2199981 C61.812431,58.7684732 52.4168721,95.7116223 37.688128,88.9494269 C29.4458045,85.1651888 25.6002786,66.4299005 25.6002786,66.4299005 L32.7583638,66.2714611 Z" id="Fill-148" fill="#FFBE9D"></path>
            <path d="M63.952816,47.2261257 C63.9457755,47.2239415 63.9697132,47.1380321 64.0232211,46.9732551 C64.0858816,46.7866486 64.1675515,46.547229 64.2696389,46.2465462 C64.4991595,45.5811005 64.8223188,44.6473641 65.2327805,43.4587161 C65.6439462,42.2468304 66.1480466,40.7624289 66.6493308,39.0174825 C66.9056053,38.1471218 67.1133004,37.2035269 67.3076184,36.191627 C67.4012572,35.6867333 67.4977121,35.1663477 67.5561483,34.6318787 C67.5807901,34.3657004 67.6089522,34.0931845 67.593463,33.8305272 C67.5737496,33.5558988 67.5315066,33.3326752 67.315363,33.327746 C67.0907707,33.2671869 66.9408079,33.452385 66.7866207,33.6861712 C66.6458106,33.9206616 66.5352746,34.1903607 66.4374115,34.4663975 C66.2402773,35.0212876 66.0853861,35.6113865 65.932607,36.2155689 C65.779124,36.8204555 65.6376097,37.4415381 65.4538525,38.0745917 C65.3426124,38.3942873 65.2940329,38.7027161 65.0314219,39.0456495 C64.9821384,39.0871958 64.9377832,39.1428257 64.838512,39.1618384 C64.7300882,39.1900054 64.6498264,39.1484591 64.5737889,39.1026877 C64.4724055,39.0118491 64.423826,38.9217146 64.3794708,38.8365094 C64.2999131,38.6583531 64.2520376,38.4766758 64.2309161,38.2999278 C64.104891,36.8859438 64.4273463,35.5198437 64.6477142,34.1016346 C64.768811,33.3946426 64.8969482,32.6792005 64.9891789,31.9546041 C65.0342381,31.5933622 65.0722569,31.2278952 65.0771852,30.8687658 C65.0905622,30.5349867 65.0314219,30.0836103 64.8856834,30.0202346 C64.7054464,29.9519296 64.3787668,30.1561404 64.2069784,30.4554149 C64.0126603,30.749056 63.869034,31.0976228 63.7458251,31.4532313 C63.5015194,32.1693776 63.3424039,32.9334078 63.2044099,33.7058881 C63.0706403,34.4811851 62.9657367,35.2712698 62.8791384,36.0726213 C62.8397116,36.4732971 62.8002847,36.8760854 62.7608579,37.2809862 L62.70735,37.8929145 C62.692565,38.0583957 62.692565,38.4041458 62.4278418,38.6027232 C62.1835362,38.786513 61.8561525,38.8055257 61.5949497,38.6351153 C61.4639962,38.5506142 61.3619088,38.3942873 61.3421954,38.2351437 C61.3252982,38.1541635 61.3400832,38.0802251 61.3457156,38.0091034 L61.3724696,37.8584099 C61.4351301,37.4499882 61.4977906,37.039454 61.5611552,36.6275115 C61.6773236,35.8008097 61.7780029,34.9649536 61.8575606,34.1220557 C61.9364143,33.2784537 61.9955546,32.4278099 62.0082275,31.5736453 C62.0096356,30.7286349 62.0032992,29.8427824 61.7604016,29.0681895 C61.6801398,28.8336992 61.5505944,28.620334 61.4048559,28.5590708 C61.2555971,28.5048493 61.0401576,28.559775 60.9296216,28.7104685 C60.68602,29.0534019 60.645185,29.6181505 60.6648985,30.0779769 L60.6656025,30.1005105 L60.6648985,30.1131857 C60.5142316,31.7679977 60.3339945,33.3946426 60.0953213,34.9931206 C59.9728165,35.7923596 59.842567,36.5831484 59.6412085,37.3654872 C59.5912209,37.5612479 59.5313766,37.7563045 59.4623796,37.9520652 C59.3687408,38.1471218 59.343395,38.3456992 59.0638868,38.5597685 C58.8216933,38.6752533 58.6421603,38.5442767 58.5464094,38.4463963 C58.443618,38.3386575 58.402079,38.232327 58.3549076,38.1281091 C58.2732377,37.9210815 58.2324027,37.7203916 58.1964961,37.5211099 C57.9726079,35.9331946 58.0655427,34.4065426 58.1549571,32.9080575 C58.1845272,32.1552941 58.3675805,31.4109808 58.2690134,30.7497602 C58.2211379,30.4230228 58.0930006,30.094173 57.876153,29.9477045 C57.7691372,29.877287 57.6466324,29.8610909 57.5149749,29.8920747 C57.4494981,29.9124957 57.3833174,29.9357335 57.3185447,29.9751673 C57.2551801,30.0279805 57.267853,30.0082636 57.2199776,30.0969897 C56.9453977,30.6723009 56.8123321,31.3990098 56.6644814,32.0574137 C56.5257834,32.7313095 56.4082069,33.4016844 56.2997831,34.062905 C56.1934714,34.7248298 56.0977205,35.3783045 56.0139384,36.0219207 C55.9259321,36.6599035 55.8822809,37.3077448 55.7569599,37.9365734 C55.6372712,38.5632894 55.4922367,39.172401 55.2641242,39.7575707 C55.2070961,39.9040392 55.1402113,40.0483951 55.0606535,40.1899344 C54.9620864,40.3223193 54.9064664,40.4948423 54.6368149,40.5772308 C54.4826278,40.6201855 54.3495622,40.5145592 54.2805652,40.4272414 C54.2214249,40.3364028 54.1925588,40.2497893 54.1693251,40.1666966 C54.1334186,40.0040321 54.1179294,39.8491135 54.112297,39.6977158 C54.0968079,38.4978011 54.2749328,37.3971751 54.3347771,36.3345745 C54.3678675,35.8071472 54.3918052,35.2860575 54.3305528,34.8051058 C54.2995746,34.5790655 54.2263533,34.3135914 54.097512,34.2607783 C53.9088263,34.1861357 53.6652247,34.1459977 53.5237105,34.2488073 C53.21252,34.472735 53.1048002,34.9881914 53.0027129,35.4008381 C52.9034417,35.8360184 52.8583824,36.2683821 52.7781206,36.6845497 C52.4852355,38.3499243 52.174749,39.7801043 52.0247862,40.9497395 C51.9557892,41.534205 51.9276272,42.0616323 52.0022566,42.5010377 C52.1001196,42.9270638 52.2423379,43.3037976 52.3247119,43.6002554 C52.4084939,43.8812213 52.4746747,44.1051491 52.5267745,44.2804887 C52.5704256,44.4347031 52.588731,44.5142749 52.5816904,44.5163874 C52.5746499,44.5185 52.5422636,44.442449 52.4859395,44.2931639 C52.423983,44.1213451 52.3437212,43.9016424 52.2444501,43.627014 C52.146587,43.3263312 51.9994404,42.984102 51.8790477,42.5242755 C51.7882251,42.0630407 51.8051223,41.5257549 51.8614464,40.9321351 C51.9888796,39.7420789 52.2740202,38.3217573 52.5436717,36.6521576 C52.6183011,36.2373984 52.658432,35.7965846 52.755591,35.3480249 C52.8055786,35.123393 52.8548622,34.8952402 52.9407564,34.6663832 C53.0301708,34.4438638 53.1259218,34.1882482 53.3814922,34.0199503 C53.654664,33.8502441 53.9567018,33.9122115 54.2129763,34.0093877 C54.5424721,34.1981067 54.554441,34.5149855 54.6121731,34.7635594 C54.6839863,35.2895784 54.6621608,35.8163015 54.6339987,36.3528831 C54.581899,37.4218212 54.415743,38.545685 54.4396807,39.682224 C54.4453131,39.8223548 54.4622103,39.9603732 54.4903723,40.0857164 C54.5199425,40.2223264 54.5903476,40.2744354 54.5762666,40.2483809 C54.6009083,40.2540143 54.7079241,40.1314878 54.7684724,40.0209323 C54.8346532,39.8998141 54.8944975,39.7695417 54.9473014,39.6322275 C55.1578126,39.0836749 55.2979187,38.4830134 55.4098628,37.8724934 C55.5274393,37.264086 55.5661621,36.629624 55.6520563,35.9761493 C55.7330221,35.3276039 55.8252528,34.6699041 55.9294523,34.0037543 C56.0343559,33.3376044 56.1498202,32.6630045 56.2871102,31.9806586 C56.4434095,31.2940877 56.5433847,30.6159669 56.8764007,29.9019331 C56.8968182,29.8294031 57.0418527,29.6695553 57.1235226,29.6308256 C57.212233,29.5773083 57.3136163,29.5378745 57.419928,29.5068908 C57.6346635,29.4498526 57.8972745,29.4815405 58.0922966,29.6125171 C58.4802286,29.8857371 58.6020294,30.311059 58.6675061,30.6884969 C58.7259424,31.0750892 58.7062289,31.4666106 58.6618737,31.8391194 C58.6203347,32.2003613 58.5907646,32.568645 58.5640107,32.9376329 C58.4788205,34.4107676 58.3978547,35.9543199 58.6132942,37.4478757 C58.6456806,37.6302571 58.6858115,37.8133427 58.748472,37.9696696 C58.7801543,38.0421997 58.817469,38.1203631 58.8533756,38.1527552 C58.8716809,38.1766971 58.8829457,38.175993 58.8885781,38.180218 L58.8913943,38.1809222 L58.8920984,38.1830347 C58.8794255,38.3485159 58.8906903,38.2182435 58.88717,38.2506356 C58.8857619,38.2196518 58.8780174,38.2252852 58.859008,38.1900765 C58.8949146,38.1605011 59.0075627,37.9661487 59.0624787,37.8034842 C59.1244352,37.6274404 59.1800552,37.445059 59.2279306,37.2570442 C59.4194325,36.5056891 59.5489778,35.7198295 59.6693705,34.9290406 C59.9031154,33.3446462 60.0812403,31.7194096 60.229795,30.0758644 L60.229795,30.110369 C60.2213464,29.5688582 60.2121937,29.0019971 60.5860448,28.4407693 C60.8043005,28.1633243 61.198569,28.0133349 61.5681957,28.1534658 C61.9343022,28.3245804 62.070184,28.6520219 62.1729754,28.9238336 C62.4517796,29.8244738 62.4426269,30.7075097 62.444739,31.5799829 C62.4313621,32.4517519 62.3708137,33.3115499 62.2905519,34.1628979 C62.208882,35.0142458 62.1067946,35.8557353 61.9885141,36.6880705 C61.9244455,37.1042382 61.8603768,37.5182932 61.7963082,37.9316441 C61.7442084,38.1928932 61.7568814,38.2020475 61.835031,38.2788026 C61.9195171,38.3435867 62.0828569,38.3337282 62.1631187,38.2661274 C62.2525332,38.2062725 62.2630939,38.0830418 62.2821033,37.8541849 L62.3363152,37.2429607 C62.3771502,36.8359474 62.4179851,36.4296382 62.458116,36.0261458 C62.5468264,35.2191609 62.6545462,34.4206261 62.7932442,33.6340622 C62.9361666,32.8482026 63.0995064,32.0714972 63.357893,31.319438 C63.4895505,30.9441126 63.6409215,30.5730122 63.869738,30.2265579 C63.9866104,30.0561475 64.1224923,29.8857371 64.3217387,29.7596897 C64.5252094,29.6427966 64.7490975,29.5364661 65.0539516,29.6540634 C65.3433165,29.8117987 65.3926,30.0793853 65.4376593,30.2744418 C65.4686375,30.480061 65.4813104,30.6800468 65.475678,30.8729909 C65.4686375,31.2609915 65.4278026,31.6356127 65.3799271,32.0053048 C65.2827681,32.7446888 65.1504065,33.4615393 65.0257895,34.1685313 C64.796973,35.5712485 64.4794461,36.9676281 64.589982,38.2492272 C64.6068793,38.4069625 64.6484183,38.5513184 64.7019261,38.6787741 C64.7343125,38.7428541 64.7709231,38.7956672 64.7927487,38.8196092 C64.7962689,38.8118633 64.7878203,38.8062299 64.7758515,38.8505929 C64.769515,38.9076311 64.7772596,38.8379178 64.768811,38.847072 C64.742057,38.8041173 64.7617705,38.8160883 64.7730353,38.8005965 C64.9208859,38.6182151 65.0257895,38.2647191 65.1180202,37.9738947 C65.3010734,37.3598538 65.447516,36.738067 65.6059274,36.1324762 C65.7636348,35.5254771 65.9241584,34.930449 66.1332615,34.3565461 C66.2381651,34.0699468 66.3536295,33.7875725 66.5169693,33.5199858 C66.6056797,33.3890092 66.692982,33.2552159 66.8380165,33.1474771 C66.901381,33.0897347 66.9964279,33.0488926 67.0893626,33.0228381 C67.1984905,33.0052337 67.2872009,33.0080504 67.3597182,33.0221339 C67.5251701,33.0291757 67.7497623,33.1742358 67.8046783,33.3481671 C67.8722672,33.5122399 67.8870523,33.6671585 67.8947968,33.8150353 C67.9095819,34.1114931 67.8764915,34.3896423 67.8483295,34.6656791 C67.7821487,35.2135275 67.6800613,35.7367297 67.5807901,36.2451443 C67.3759113,37.2577484 67.1534313,38.2140184 66.8837798,39.0857875 C66.3578538,40.8328464 65.8298156,42.3102062 65.3933041,43.5157543 C64.9553844,44.7198941 64.5991347,45.6494055 64.3520128,46.2768257 C64.2330283,46.5718752 64.1386854,46.8063655 64.0647601,46.9894511 C63.9971712,47.1485947 63.9598565,47.2288707 63.952816,47.2261257" id="Fill-150" fill="#EB996E"></path>
            <path d="M25.5219178,67.071193 C26.8596144,71.7919842 29.4730512,79.0858321 32.2829183,86.7754264 C32.6884516,87.8873192 34.2345473,87.9591451 34.7400558,86.8895028 L41.6284895,72.3243408 C41.6284895,72.3243408 39.9697456,60.3582898 40.1105558,60.7800908 C40.251366,61.202596 25.899289,62.3285723 25.899289,62.3285723 L25.5219178,67.071193 Z" id="Fill-152" fill="#999CDA"></path>
            <path d="M41.0354674,64.7238246 C41.0509565,64.7822711 40.1800456,65.0343659 38.8162991,65.5547514 C37.4532566,66.0730245 35.6086433,66.8969096 33.7062979,68.047532 C31.8060646,69.2037879 30.2226542,70.4586283 29.1334875,71.4282777 C28.0415046,72.3965187 27.4148993,73.0528101 27.3705441,73.011968 C27.3515348,72.9950677 27.4895287,72.8140947 27.756364,72.5000325 C28.0203831,72.184562 28.4294366,71.75079 28.9574748,71.2374462 C30.0114389,70.2107586 31.590625,68.9045134 33.5162042,67.734174 C35.4438954,66.5680597 37.3307518,65.7709333 38.7289968,65.3104026 C39.4281193,65.0794331 40.0012167,64.9167686 40.4039338,64.8294509 C40.8045387,64.7379081 41.029131,64.6991784 41.0354674,64.7238246" id="Fill-154" fill="#FAFAFA"></path>
            <path d="M43.7657063,68.3557496 C43.7297997,68.3825082 43.2609018,67.8290264 42.6166953,66.8516311 C41.9731928,65.8756441 41.1755031,64.4595476 40.4890535,62.8082565 C39.8054202,61.1534445 39.3675005,59.588767 39.1323475,58.4430738 C38.8957864,57.2966764 38.8359421,56.5748967 38.8802973,56.5677528 C38.9359173,56.5579965 39.0858802,57.2628759 39.3843977,58.3832189 C39.6822113,59.5035618 40.1532213,61.0351431 40.827702,62.6674214 C41.505703,64.2982914 42.2555172,65.7136838 42.8377672,66.7157253 C43.4193133,67.7191751 43.8114696,68.3233575 43.7657063,68.3557496" id="Fill-156" fill="#263238"></path>
            <path d="M48.3606239,3.84463002 C45.9513618,7.73942365 45.4395168,12.7785022 47.0151827,17.0887592 C47.7227538,19.0231288 48.8428987,20.9349647 48.638724,22.9876358 C48.4282128,25.0903032 46.8335375,27.0760776 47.3967782,29.1111442 C47.7297943,30.3138757 48.7626369,31.2060658 49.1583135,32.3890803 C49.622283,33.777714 49.1386001,35.2804241 48.9175281,36.7296169 C48.3542874,40.417383 49.5328686,44.1255701 49.8250497,47.8450241 C50.1172308,51.5651823 49.1132542,55.9190982 45.7964706,57.5415181 C44.7875657,58.035145 43.4702865,58.1766842 42.631762,57.424625 C41.567237,56.4704675 41.8636425,54.7550964 42.1551195,53.3460416 C45.0698901,39.2491561 36.0657836,25.5177376 38.1216121,11.2673419 C38.4511079,8.98299724 39.7268481,5.10721635 41.3715109,3.5087384 C43.0154697,1.91026045 47.5629342,2.10461284 49.1188867,3.7911127" id="Fill-158" fill="#263238"></path>
            <path d="M34.4923707,44.6961685 C34.4628006,44.6717989 34.9155053,44.1887347 35.549151,43.1895099 C36.1806847,42.1973269 36.97415,40.6474371 37.388836,38.57857 C37.5894905,37.5448406 37.6789049,36.393514 37.6056836,35.1541655 C37.5514717,33.9134086 37.3768671,32.5797006 37.4606491,31.1530414 C37.4895152,30.4390076 37.6422943,29.7122987 37.8647743,28.9947441 C38.1140084,28.2870479 38.4378718,27.592731 38.8314362,26.9265812 C39.6192691,25.5942815 40.6169092,24.3535246 41.5300632,23.0275625 C42.4425131,21.7072338 43.2007759,20.3080375 43.4457856,18.8299735 C43.6922034,17.3519095 43.4260721,15.8879291 43.2000718,14.5084496 C42.9564702,13.1289702 42.7882021,11.7699119 42.8895854,10.5073255 C42.9698472,9.24544338 43.2218974,8.087075 43.5647702,7.07095003 C44.2561481,5.03236252 45.2777259,3.58809896 46.0528859,2.68886709 C46.4436342,2.23678654 46.77313,1.90934503 47.0110992,1.70513419 C47.2462522,1.4966983 47.3736854,1.39248035 47.382134,1.4023388 C47.4088879,1.43050582 46.9076037,1.86146111 46.1634219,2.78040988 C45.4298009,3.69724613 44.4575067,5.14221386 43.8104839,7.15193019 C43.4908448,8.15397165 43.258508,9.29121478 43.1930313,10.5242257 C43.1078412,11.7607576 43.2803336,13.0705237 43.5330879,14.4521156 C43.7661287,15.82737 44.0540855,17.3272634 43.8006272,18.8877159 C43.5464648,20.44676 42.7558157,21.8987695 41.832805,23.23459 C40.9069781,24.5774524 39.9135624,25.8097591 39.1405145,27.1089626 C38.7546946,27.7589164 38.4399839,28.4278829 38.1963823,29.1060038 C37.9816468,29.7918705 37.8302759,30.4819623 37.7971855,31.1748708 C37.7063629,32.5564628 37.8668865,33.8866499 37.9098336,35.1407861 C37.970382,36.3970349 37.8647743,37.5821619 37.6429983,38.630679 C37.1867734,40.7347548 36.3433204,42.2895739 35.6688397,43.2683775 C35.3301912,43.7605961 35.035898,44.1197255 34.828907,44.35492 C34.6169877,44.5872979 34.5015233,44.704191 34.4923707,44.6961685" id="Fill-160" fill="#455A64"></path>
            <path d="M27.8145186,45.7505058 C27.8032538,45.7439763 27.8792913,45.5820159 28.0334784,45.2785164 C28.2059709,44.9440331 28.4333793,44.5046277 28.7171118,43.9567793 C29.3064024,42.8075652 30.1892822,41.1562741 31.0559688,39.0219188 C31.9064623,36.8960135 32.7499152,34.2328225 32.775261,31.1971228 C32.7801894,30.4408385 32.7252734,29.667654 32.6034726,28.8867236 C32.4823759,28.1043848 32.3007307,27.30585 32.1831542,26.4728106 C32.0698021,25.6418838 32.0155901,24.7567354 32.2359581,23.8828538 C32.4542138,23.0061556 33.0047816,22.2259293 33.6687016,21.6217469 C34.9965415,20.4154946 36.5975532,19.6289308 37.4241089,18.2163551 C38.2717862,16.8284256 38.4590637,15.1996681 38.6723911,13.7004789 C38.8561484,12.1857978 39.1462173,10.7274507 39.6418691,9.44655585 C40.1206237,8.15791504 40.760606,7.03968465 41.4280462,6.08623128 C42.7720793,4.17298697 44.2667793,2.96743884 45.341865,2.25129256 C45.8832801,1.8935715 46.3219038,1.64358927 46.6302781,1.4971208 C46.9365402,1.34572311 47.0991759,1.2717847 47.1048083,1.28305151 C47.1238177,1.31826027 46.4739788,1.62598488 45.4228308,2.36888983 C44.3829477,3.11390731 42.9354191,4.33353894 41.6413736,6.2341081 C40.9985752,7.18122388 40.3839388,8.28607494 39.9270097,9.55288632 C39.4531835,10.8161768 39.182828,12.22664 39.0075193,13.7455461 C38.7998243,15.2447353 38.6273318,16.9171517 37.730371,18.4043699 C36.8341143,19.9253886 35.1774826,20.7337819 33.9186396,21.8907419 C33.2842898,22.4702782 32.7914542,23.1737493 32.5893916,23.9743966 C32.3859209,24.7736356 32.4302761,25.6130126 32.5386999,26.4235183 C32.6513481,27.2368408 32.8294729,28.0339673 32.9498656,28.8332062 C33.0709624,29.6338536 33.1230622,30.4274591 33.1132054,31.1992353 C33.0674421,34.3011275 32.1831542,36.990373 31.2960502,39.1205033 C30.3906407,41.2583795 29.4711503,42.894883 28.8424329,44.0243802 C28.5333545,44.5595534 28.2862327,44.987692 28.0975471,45.3137251 C27.9229424,45.6059579 27.8257834,45.7566514 27.8145186,45.7505058" id="Fill-162" fill="#455A64"></path>
        </g>
        <g id="Group-255" transform="translate(126.052666, 46.084973)">
            <path d="M95.4682416,0.088539018 C95.4682416,0.088539018 95.2809641,0.0920598945 94.9176738,0.0807930896 C94.5543836,0.0660054081 94.0150806,0.040655097 93.3075095,0.0899473686 C91.9022239,0.168110828 89.7914794,0.433584919 87.3068839,1.47294767 C84.8504505,2.51160625 81.9751067,4.34598293 79.6876454,7.41196222 C78.5534195,8.93861428 77.605063,10.7743993 77.0284453,12.8552373 C76.4715411,14.9381879 76.2828554,17.2492913 76.5475786,19.6294038 C76.8489123,22.0003621 77.5740847,24.454413 78.9033328,26.7070698 C79.5623244,27.8309336 80.3438208,28.9224053 81.2992179,29.885013 C82.2222286,30.8757876 83.3106912,31.7531901 84.5385559,32.4200441 C85.7636044,33.0833772 87.1667778,33.5009532 88.6023375,33.443915 C90.0266324,33.3967352 91.4952825,32.8946583 92.5379819,31.8559997 C93.5877217,30.8236787 94.1059032,29.3089976 94.1066072,27.7971332 C94.1143518,26.2732978 93.5863136,24.7586167 92.678792,23.4826511 C90.8503719,20.9131154 87.8947664,19.184365 84.7504752,18.2527411 C81.5759099,17.3274547 78.0880419,17.3028086 74.7501367,18.1147227 C73.0864645,18.5470864 71.4622192,19.1829567 69.9337247,20.0293754 C68.4066384,20.8800192 67.017546,21.9912078 65.799538,23.2728068 C65.5108772,23.6086985 65.1820854,23.912198 64.9251068,24.2748483 L64.1302334,25.3487157 C63.6662639,26.1106333 63.1903255,26.8711427 62.8340758,27.6978445 C62.0877818,29.3315312 61.563968,31.0828152 61.3034692,32.8869123 C60.831051,36.4944024 61.2675626,40.2096313 62.7249479,43.4509503 C64.1323456,46.6986068 66.532455,49.4850285 69.522559,51.1651908 C71.0151468,51.9989343 72.664034,52.5369243 74.3368588,52.6277629 C76.0054594,52.7319808 77.6712438,52.3010256 79.08709,51.4869989 C80.5015282,50.6757889 81.6829256,49.4554531 82.3024904,47.9851351 C82.9178308,46.5162254 82.906566,44.839584 82.3750076,43.3805328 C81.8518978,41.9066938 80.871859,40.6469242 79.7284804,39.6371368 C78.5773572,38.6273494 77.2354363,37.8710652 75.833671,37.3739174 C72.9935298,36.4458143 69.9682232,36.4958108 67.2625557,37.2246322 C64.5498477,37.9640163 62.131433,39.3611001 60.2326078,41.1454803 C58.3365988,42.9411274 57.0059427,45.1444919 56.2026206,47.3936278 C54.5776712,51.9264043 54.9909491,56.5281899 56.3863779,60.0448414 C57.8226417,63.5910683 60.1044706,66.1155367 62.187053,67.7844322 C64.2893489,69.4652987 66.2036632,70.3729807 67.5167181,70.8891412 C68.1785259,71.1412359 68.6889628,71.3208006 69.0388761,71.418681 C69.3859731,71.527124 69.5612818,71.5919081 69.5612818,71.5919081 C69.5612818,71.5919081 69.3789326,71.5517701 69.0283153,71.4545939 C68.6734737,71.3679804 68.1588125,71.2003866 67.4899642,70.9588545 C66.1635323,70.4624109 64.2288005,69.5716292 62.0983426,67.8963961 C59.9868941,66.2324298 57.6684545,63.7016238 56.1962842,60.1208923 C54.7649488,56.5690321 54.325621,51.9123208 55.9576109,47.3063101 C56.7658613,45.0212612 58.1105985,42.7756462 60.0382898,40.9405653 C61.9666851,39.1181596 64.4217105,37.6900921 67.183702,36.9316953 C69.9386531,36.1831569 73.0195797,36.1211895 75.9385746,37.0690095 C77.3818788,37.577424 78.7590023,38.3513127 79.9453281,39.3885629 C81.1246133,40.4265173 82.1419668,41.7250166 82.6932386,43.2671605 C83.252255,44.7931084 83.2691522,46.5655177 82.6200173,48.1182242 C81.9680662,49.6709308 80.7317529,50.9447839 79.2616947,51.7904985 C77.7923405,52.6390297 76.055447,53.0889977 74.3178495,52.9826673 C72.5823641,52.8897161 70.8799691,52.3341218 69.3479544,51.4785488 C66.2797007,49.7575443 63.8296037,46.9105636 62.3912278,43.5981229 C60.9035683,40.2906115 60.4579041,36.5105985 60.9401789,32.8355075 C61.2056061,30.99761 61.7392767,29.2111172 62.5017638,27.5443343 C62.8657581,26.7007322 63.3515532,25.9233227 63.8267875,25.145209 L64.6392622,24.0473997 C64.9025772,23.6770035 65.2377054,23.3664622 65.5327027,23.0235288 C66.7781687,21.7130585 68.1989434,20.5807446 69.7555998,19.7139048 C71.3143685,18.8512901 72.9695921,18.2048572 74.6628344,17.7661559 C78.061992,16.9422708 81.6104084,16.9697337 84.8483383,17.9161453 C88.0566981,18.8738237 91.0622913,20.626516 92.9561881,23.2890029 C93.8939838,24.6093316 94.44948,26.2028803 94.4368071,27.7978374 C94.4346949,29.3794151 93.8883514,30.9835265 92.7646863,32.0848566 C91.6487656,33.1918202 90.0998537,33.7107974 88.6136023,33.757273 C87.1111578,33.813607 85.6523644,33.3734975 84.3942255,32.6876307 C83.1325663,31.9975389 82.0243903,31.0990112 81.0872986,30.0892238 C80.1171165,29.1061951 79.3250592,27.9928939 78.6590271,26.8493132 C77.314994,24.5558143 76.5870054,22.064442 76.2906,19.6589792 C76.0301012,17.2450662 76.2300516,14.9036833 76.803149,12.7932699 C77.3966639,10.6856732 78.3675501,8.82805876 79.5236016,7.28943571 C81.85401,4.19881029 84.7680765,2.36795449 87.252672,1.34126689 C89.7640215,0.313875116 91.8916632,0.0709346353 93.3039892,0.0160089613 C94.0150806,-0.0220165053 94.5564957,0.0160089613 94.92049,0.0441759736 C95.2830762,0.0674137587 95.4682416,0.088539018 95.4682416,0.088539018" id="Fill-234" fill="#263238"></path>
            <polygon id="Fill-236" fill="#683FEE" points="20.2665971 146.69988 118.982273 146.69988 118.982273 70.5482499 20.2665971 70.5482499"></polygon>
            <polygon id="Fill-238" fill="#683FEE" points="20.2668083 70.5483907 38.4996136 87.5577453 135.541057 87.5577453 118.982484 70.5483907"></polygon>
            <path d="M20.2668083,70.5483907 C22.0473529,70.545574 62.8196427,70.4709314 118.982484,70.368826 L119.057818,70.368826 L119.111326,70.4230475 C124.399452,75.8536475 129.887528,81.4891625 135.502334,87.2549499 C135.560066,87.3141006 135.617798,87.3739555 135.672714,87.4302895 L135.976864,87.741535 L135.541057,87.741535 C95.7495099,87.7112555 60.4329103,87.6844968 38.4996136,87.6683008 L38.4566665,87.6683008 L38.4249842,87.6387254 C27.0158399,76.9007562 20.8659556,71.111731 20.2668083,70.5483907 C20.8701799,71.1060976 27.0714599,76.8409013 38.5756511,87.4774693 L38.4996136,87.4478939 C60.4329103,87.4309937 95.7495099,87.4042351 135.541057,87.3746597 L135.410103,87.6859052 C135.355187,87.6295712 135.297455,87.5697163 135.239723,87.5105655 C129.62703,81.7433698 124.140361,76.1064464 118.852939,70.6744381 L118.982484,70.7286596 C62.8196427,70.62585 22.0466489,70.5519116 20.2668083,70.5483907" id="Fill-239" fill="#263238"></path>
            <path d="M49.9167137,105.662937 C48.8726062,105.66505 47.9186173,106.603011 47.9010161,107.648008 C47.8827107,108.693004 48.8029052,109.664062 49.8470127,109.701383 C50.8911201,109.738704 51.8789035,108.83736 51.9359316,107.793772 C51.9936637,106.750888 51.110784,105.745326 50.0687887,105.668571" id="Fill-240" fill="#FFFFFF"></path>
            <path d="M73.2253033,105.662937 C72.1811959,105.66505 71.227207,106.603011 71.2096057,107.648008 C71.1913004,108.693004 72.1114949,109.664062 73.1556023,109.701383 C74.1997097,109.738704 75.1874931,108.83736 75.2445212,107.793772 C75.3022534,106.750888 74.4186696,105.745326 73.3773783,105.668571" id="Fill-241" fill="#FFFFFF"></path>
            <path d="M73.3751958,123.891712 C73.2695881,123.935371 73.1139929,121.986214 71.4214546,119.513854 C70.5892665,118.288589 69.3445045,116.988682 67.6920972,115.935236 C66.0488424,114.881789 63.9634438,114.123393 61.7097769,114.041708 C59.453998,113.999458 57.3291724,114.64237 55.6310017,115.604273 C53.9229743,116.566177 52.6092154,117.795667 51.7108465,118.974456 C49.8859467,121.348935 49.6233357,123.286826 49.5205443,123.236829 C49.5085754,123.234013 49.5282888,123.119936 49.5775724,122.904459 C49.6374167,122.691798 49.68318,122.362244 49.8359591,121.969314 C50.0908255,121.16585 50.6083029,120.039169 51.5045596,118.817425 C52.3944799,117.594273 53.7209117,116.313378 55.4648457,115.310632 C57.1975149,114.307182 59.385705,113.631174 61.7196336,113.674833 C64.0521542,113.759334 66.1988053,114.553644 67.8744463,115.651453 C69.5606482,116.747854 70.8138587,118.098462 71.6354861,119.368794 C72.4634499,120.638422 72.9189708,121.791862 73.128778,122.608001 C73.2604355,123.009381 73.2878935,123.340343 73.3357689,123.555821 C73.3737877,123.774115 73.3878687,123.8896 73.3751958,123.891712" id="Fill-242" fill="#FFFFFF"></path>
            <polygon id="Fill-243" fill="#000000" points="20.490626 71.3862889 37.9482714 93.5248564 118.982414 93.5248564 118.982414 87.5576749 38.5002472 87.5576749"></polygon>
            <path d="M99.5165341,146.525033 C99.4144467,146.525033 99.3327768,133.279496 99.3327768,116.944037 C99.3327768,100.602945 99.4144467,87.3595199 99.5165341,87.3595199 C99.6179174,87.3595199 99.6995873,100.602945 99.6995873,116.944037 C99.6995873,133.279496 99.6179174,146.525033 99.5165341,146.525033" id="Fill-244" fill="#263238"></path>
            <polygon id="Fill-245" fill="#F5F5F5" points="106.31499 139.10042 115.016355 139.10042 115.016355 129.262387 106.31499 129.262387"></polygon>
            <polygon id="Fill-246" fill="#E8505B" points="20.2668083 70.5483907 0 87.5577453 20.2668083 87.5577453"></polygon>
            <polygon id="Fill-247" fill="#000000" points="20.2668083 70.5483907 0 87.5577453 20.2668083 87.5577453"></polygon>
            <polygon id="Fill-248" fill="#E8505B" points="8.39629943 234.25563 121.895636 234.25563 121.895636 146.69988 8.39629943 146.69988"></polygon>
            <polygon id="Fill-249" fill="#000000" points="8.39629943 234.25563 121.895636 234.25563 121.895636 146.69988 8.39629943 146.69988"></polygon>
            <path d="M93.4585284,233.637152 C93.3571451,233.637152 93.2754752,214.120934 93.2754752,190.052222 C93.2754752,165.97506 93.3571451,146.463066 93.4585284,146.463066 C93.5606158,146.463066 93.6422857,165.97506 93.6422857,190.052222 C93.6422857,214.120934 93.5606158,233.637152 93.4585284,233.637152" id="Fill-250" fill="#263238"></path>
            <polygon id="Fill-251" fill="#F5F5F5" points="103.571304 224.164797 112.271964 224.164797 112.271964 214.326764 103.571304 214.326764"></polygon>
            <polygon id="Fill-252" fill="#263238" points="43.0215211 165.607691 55.9141006 165.607691 55.9141006 146.925216 43.0215211 146.925216"></polygon>
            <polygon id="Fill-253" fill="#263238" points="43.0215211 233.995085 55.9141006 233.995085 55.9141006 215.313314 43.0215211 215.313314"></polygon>
            <path d="M120.906233,146.699739 C120.906233,146.706077 120.806962,146.712415 120.61546,146.718048 C120.406357,146.722977 120.124033,146.729315 119.762854,146.737061 C118.994031,146.744807 117.893599,146.756073 116.484794,146.771565 C113.618603,146.784945 109.504833,146.804661 104.429331,146.829308 C94.2325619,146.842687 80.1775944,146.860995 64.6539769,146.882121 C49.1247269,146.860995 35.0683513,146.842687 24.8722866,146.829308 C19.7967839,146.804661 15.6823106,146.784945 12.8168236,146.771565 C11.4087219,146.756073 10.3082904,146.744807 9.53876278,146.737061 C9.17828873,146.729315 8.89596433,146.722977 8.68686123,146.718048 C8.49465534,146.712415 8.39608822,146.706077 8.39608822,146.699739 C8.39608822,146.693402 8.49465534,146.687064 8.68686123,146.681431 C8.89596433,146.676502 9.17828873,146.670868 9.53876278,146.662418 C10.3082904,146.655376 11.4087219,146.643405 12.8168236,146.627913 C15.6823106,146.614534 19.7967839,146.594817 24.8722866,146.569467 C35.0683513,146.556088 49.1247269,146.537075 64.6539769,146.515245 C80.1775944,146.537075 94.2325619,146.556088 104.429331,146.569467 C109.504833,146.594817 113.618603,146.614534 116.484794,146.627913 C117.893599,146.643405 118.994031,146.655376 119.762854,146.662418 C120.124033,146.670868 120.406357,146.676502 120.61546,146.681431 C120.806962,146.687064 120.906233,146.693402 120.906233,146.699739" id="Fill-254" fill="#263238"></path>
        </g>
        <g id="Group-262" transform="translate(8.508334, 0.000000)">
            <path d="M43.9365881,41.1923867 C43.1198891,40.9916968 39.1863569,40.0248641 31.5776792,38.1552786 L31.6685017,38.1411951 C28.9501613,39.8741705 25.2686794,41.2733669 21.0000189,41.3395594 C18.8773056,41.3318134 16.6306793,41.076902 14.3896853,40.374135 C12.1500995,39.6770015 9.94782842,38.5193373 7.94691586,36.9581806 C3.94297857,33.8612176 0.82544133,28.8960775 0.152368701,23.1823991 C-0.191208123,20.3438684 0.0383124603,17.3595734 0.921896299,14.5027342 C1.82167331,11.6529367 3.37269737,8.95242443 5.4630244,6.67934654 C6.5219169,5.47872764 7.76949504,4.4816154 9.04171496,3.5605541 C9.71056328,3.14790737 10.3688508,2.71906461 11.0574126,2.35641433 L12.1085605,1.85011228 L12.6323744,1.59801752 L13.1773098,1.39944008 C16.0568778,0.28191387 19.1216112,-0.149745594 22.0624317,0.0453109662 C25.0074765,0.234734124 27.8286083,1.05932341 30.2948985,2.35782268 C32.766117,3.65280107 34.8846061,5.41183099 36.5475743,7.40887216 C38.2154708,9.40732168 39.4271423,11.6409658 40.198078,13.8950309 C40.9690137,16.152617 41.319631,18.4235823 41.3400485,20.5692045 C41.3653943,24.8794615 40.018545,28.5770861 38.3788106,31.2768942 L38.3802187,31.1649303 C41.817395,37.3673064 43.5535844,40.5008866 43.9365881,41.1923867 C43.5402075,40.5086325 41.7434697,37.4088528 38.1873087,31.2747817 L38.1556264,31.2191518 L38.1894209,31.1628178 C39.7869123,28.476389 41.0894064,24.8196066 41.0408269,20.5706128 C41.0091446,18.4559744 40.6521908,16.2223303 39.8854794,14.0041781 C39.1173599,11.7895467 37.9176572,9.59744901 36.2729944,7.63984166 C34.6318518,5.6822343 32.5464532,3.96052568 30.1181817,2.69441847 C27.6934305,1.42619874 24.9258066,0.623438894 22.0370859,0.441761664 C19.1504773,0.254451033 16.1469963,0.681885444 13.3251604,1.7782864 L12.7914899,1.97404713 L12.2782368,2.22121267 L11.2482104,2.71765626 C10.5730256,3.07396896 9.928115,3.4950658 9.27264364,3.89926243 C8.02647361,4.80271934 6.8028332,5.7794105 5.76506222,6.95749579 C3.71627419,9.18550646 2.19411622,11.8317973 1.31053238,14.6238524 C0.443141709,17.4229492 0.214325177,20.350206 0.547341238,23.1345151 C1.19929234,28.7383422 4.24572045,33.6175729 8.17009998,36.6736938 C10.1315857,38.213021 12.2923178,39.3587142 14.4917727,40.0537352 C16.6940438,40.7536855 18.9033555,41.0149345 20.9957946,41.0339473 C25.2017945,40.9895842 28.8424416,39.6354551 31.5438847,37.9433218 L31.5875359,37.9165632 L31.6354114,37.9292383 C39.2088865,39.9382505 43.1248175,40.9769091 43.9365881,41.1923867" id="Fill-256" fill="#263238"></path>
            <path d="M18.9729861,11.4987223 L19.6270493,21.8240449 C19.6798532,22.6683511 20.3543339,23.3401343 21.1991949,23.3908349 C22.0891152,23.4436481 22.8656833,22.7894692 22.9635464,21.9022083 L24.1097412,11.5247768 C24.1963395,10.7389172 23.5753666,10.055163 22.7847175,10.0656048 L20.2663275,10.1009344 C19.5151053,10.111497 18.9258147,10.7487756 18.9729861,11.4987223" id="Fill-258" fill="#999CDA"></path>
            <path d="M23.9354182,29.19838 C23.4967945,30.5194128 22.0710915,31.2348549 20.7502921,30.7961537 C19.4294927,30.3574525 18.714177,28.9314975 19.1528007,27.6104646 C19.5914244,26.2894318 21.0171274,25.5739896 22.3379268,26.0126909 C23.6587262,26.4513921 24.3740419,27.8773471 23.9354182,29.19838" id="Fill-260" fill="#999CDA"></path>
        </g>
    </g>
</svg>