<?xml version="1.0" encoding="UTF-8"?>
<svg width="107px" height="107px" viewBox="0 0 107 107" version="1.1" xmlns="http://www.w3.org/2000/svg" xmlns:xlink="http://www.w3.org/1999/xlink">
    <title>ic / 기획자</title>
    <defs>
        <circle id="path-1" cx="47.5" cy="47.5" r="47.5"></circle>
        <filter x="-8.4%" y="-8.4%" width="121.1%" height="121.1%" filterUnits="objectBoundingBox" id="filter-3">
            <feOffset dx="2" dy="2" in="SourceAlpha" result="shadowOffsetOuter1"></feOffset>
            <feGaussianBlur stdDeviation="3" in="shadowOffsetOuter1" result="shadowBlurOuter1"></feGaussianBlur>
            <feColorMatrix values="0 0 0 0 0   0 0 0 0 0   0 0 0 0 0  0 0 0 0.2 0" type="matrix" in="shadowBlurOuter1"></feColorMatrix>
        </filter>
        <path d="M13.7179178,40.5786307 L22.2547301,100.908124 C22.3144561,101.332368 22.6617288,101.502748 23.0299364,101.288298 L87.9767019,63.4893387 C88.3449094,63.2748893 88.5945886,62.7575417 88.5348626,62.3332981 L79.9977424,2.00380483 C79.9380165,1.57956119 79.5907438,1.40949132 79.2228441,1.62363039 L14.2757707,39.42259 C13.9075631,39.6367291 13.6578839,40.154387 13.7179178,40.5786307" id="path-4"></path>
        <filter x="-4.7%" y="-2.5%" width="109.4%" height="107.0%" filterUnits="objectBoundingBox" id="filter-5">
            <feOffset dx="0" dy="1" in="SourceAlpha" result="shadowOffsetOuter1"></feOffset>
            <feGaussianBlur stdDeviation="1" in="shadowOffsetOuter1" result="shadowBlurOuter1"></feGaussianBlur>
            <feColorMatrix values="0 0 0 0 0   0 0 0 0 0   0 0 0 0 0  0 0 0 0.104488773 0" type="matrix" in="shadowBlurOuter1"></feColorMatrix>
        </filter>
    </defs>
    <g id="로그인-후" stroke="none" stroke-width="1" fill="none" fill-rule="evenodd">
        <g id="서비스-소개_pc(1200)" transform="translate(-378.000000, -2352.000000)">
            <g id="Group-6" transform="translate(382.000000, 2092.000000)">
                <g id="ic-/-기획자" transform="translate(0.000000, 264.000000)">
                    <mask id="mask-2" fill="white">
                        <use xlink:href="#path-1"></use>
                    </mask>
                    <g id="Oval">
                        <use fill="black" fill-opacity="1" filter="url(#filter-3)" xlink:href="#path-1"></use>
                        <use fill="#FFFFFF" fill-rule="evenodd" xlink:href="#path-1"></use>
                    </g>
                    <g id="달력" mask="url(#mask-2)">
                        <g transform="translate(17.784416, -17.784416)">
                            <path d="M0.478485232,88.9391775 C0.13305974,88.7383834 -0.071055323,88.2365531 0.0228437634,87.8185164 L10.9385356,39.1118091 C11.0321268,38.6937724 11.4064917,38.1813903 11.7743914,37.9669409 L76.7211569,0.16798127 C77.0893645,-0.0461577996 77.6678444,-0.0570199263 78.0132699,0.143774245 C78.3583875,0.344878763 78.5625026,0.846398672 78.4686035,1.26474572 L67.5532195,49.9711427 C67.4593205,50.3894897 67.0852634,50.9018718 66.716748,51.1160109 L1.77029037,88.9152808 C1.4020828,89.1294199 0.823910724,89.1399717 0.478485232,88.9391775" id="Fill-30" fill="#F0F0F0" fill-rule="evenodd"></path>
                            <path d="M12.1891175,39.8395716 L1.27342566,88.5462789 C1.17983444,88.9643156 1.40211359,89.1294199 1.77032116,88.9152808 L66.7167788,51.1160109 C67.0852942,50.9018718 67.4593512,50.3894897 67.5532503,49.9711427 L78.4686343,1.26474572 C78.5625334,0.846398672 78.3399464,0.681604692 77.9717388,0.895743762 L13.0252812,38.6950138 C12.6570736,38.9088425 12.2827087,39.4215349 12.1891175,39.8395716" id="Fill-32" fill="#E6E6E6" fill-rule="evenodd"></path>
                            <path d="M79.2638826,0.871691909 C78.9184571,0.670897738 78.3399771,0.681449518 77.9717696,0.895588588 L13.0253119,38.6948586 C12.6571044,38.9089977 12.4071173,39.4266556 12.467459,39.8508992 L21.0042714,100.180392 C21.0643052,100.604636 21.3927981,101.111432 21.7382236,101.312536 C22.0833412,101.513331 22.6615133,101.502468 23.0297208,101.288329 L87.9767942,63.4893698 C88.3450018,63.2749203 88.594681,62.7575728 88.5346471,62.3330188 L79.9978348,2.00352552 C79.9378009,1.57959223 79.6093081,1.07248608 79.2638826,0.871691909" id="Fill-34" fill="#F0F0F0" fill-rule="evenodd"></path>
                            <g id="Fill-36" fill="none">
                                <use fill="black" fill-opacity="1" filter="url(#filter-5)" xlink:href="#path-4"></use>
                                <use fill="#FAFAFA" fill-rule="evenodd" xlink:href="#path-4"></use>
                            </g>
                            <path d="M1.33111972,88.2886292 L17.9518738,78.6083019 L18.4487692,82.1198723 L10.8247792,86.5565855 C10.8247792,86.5565855 8.79440383,87.284348 7.98594809,87.4860732 C7.17749235,87.6874881 1.33111972,88.2886292 1.33111972,88.2886292" id="Fill-38" fill="#E0E0E0" fill-rule="evenodd"></path>
                            <polygon id="Fill-40" fill="#E6E6E6" fill-rule="evenodd" points="18.4486461 82.1197482 20.9432831 99.7477385 10.8249639 86.5567718"></polygon>
                            <path d="M20.6435449,100.333642 L11.577819,88.4622681 C11.3182881,88.122749 10.7672082,87.8971272 10.3463556,87.9582654 L1.86557485,89.192203 C1.44503009,89.2533413 0.823756791,89.1400648 0.478331299,88.9392706 C0.133213673,88.7381661 0.19140032,88.5097511 0.608866423,88.4287507 L10.3525129,86.5384303 C10.769979,86.4574298 11.3136701,86.6709482 11.5670437,87.0148121 L21.9045635,101.053335 C22.1579371,101.397199 22.0834336,101.513269 21.7383159,101.312474 C21.3928904,101.11137 20.902768,100.673161 20.6435449,100.333642" id="Fill-42" fill="#E0E0E0" fill-rule="evenodd"></path>
                            <path d="M78.4887995,1.02475479 C78.4823343,0.670959807 78.294844,0.304750963 78.0146861,0.143370795 C77.6667977,-0.0552509514 77.0910885,-0.045940557 76.7216495,0.168198513 L11.7742683,37.9683995 C11.5957061,38.0708139 11.4171439,38.2477114 11.2662896,38.4463331 C11.109278,38.6573687 10.9861317,38.899439 10.9368731,39.1135781 L9.39754383,45.9939595 L10.6474792,46.7173771 L76.9276117,8.14317196 L78.4690961,1.26496297 C78.4887995,1.17558318 78.4878759,1.09799656 78.4887995,1.02475479" id="Fill-44" fill="#27DEBF" fill-rule="evenodd"></path>
                            <path d="M78.4686651,1.26449745 C78.5625642,0.846460741 78.3399771,0.681666761 77.9720774,0.895805831 L13.0253119,38.6947655 C12.6571044,38.9089045 12.2827395,39.4215969 12.1891483,39.8396336 L10.6476639,46.7172219 L76.9271807,8.14270644 L78.4686651,1.26449745 Z" id="Fill-46" fill="#000000" fill-rule="evenodd"></path>
                            <path d="M12.5157632,39.1752439 C12.3587516,39.3862795 12.2356052,39.6252463 12.1894254,39.8393854 L10.6476331,46.717284 L9.39708204,45.993556 L10.9364113,39.1131746 C10.9856699,38.8990355 11.1088162,38.6569653 11.2658278,38.4459297 L12.5157632,39.1752439 Z" id="Fill-48" fill="#000000" fill-rule="evenodd"></path>
                            <path d="M78.4884916,1.02428927 C78.4573972,0.791529414 78.2575922,0.729460119 77.9709691,0.897047217 L13.0235879,38.6941448 C12.8453336,38.7965591 12.6633848,38.9734566 12.5156092,39.1751818 L11.2659817,38.4458676 C11.416836,38.2472459 11.5953982,38.0703484 11.7739604,37.967934 L76.7213416,0.167732993 C77.0907806,-0.0464060767 77.6664898,-0.0557164711 78.0143782,0.142905275 C78.2942283,0.304285444 78.4820265,0.670494288 78.4884916,1.02428927" id="Fill-50" fill="#FFFFFF" fill-rule="evenodd"></path>
                            <path d="M80.077141,2.58163893 L80.079604,2.58039755 L79.9977116,2.00377379 C79.9937094,1.97615296 79.9860127,1.94791143 79.9801633,1.91998024 C79.9783161,1.91253193 79.9773925,1.90384223 79.9755453,1.89639391 L79.9746217,1.89453183 C79.879799,1.49573661 79.5802455,1.0556653 79.2637594,0.87162984 C78.9183339,0.670525322 78.339854,0.681387449 77.9719543,0.895526519 L13.0251888,38.6947965 C12.8361592,38.8046592 12.6797633,38.9949016 12.5787833,39.2109027 L12.5775518,39.2124544 C12.4818056,39.4172831 12.4387043,39.643836 12.4667201,39.8517682 L13.6920262,48.4949176 L14.9416538,49.2242318 L81.222402,10.6512681 L80.077141,2.58163893 Z" id="Fill-52" fill="#683FEE" fill-rule="evenodd"></path>
                            <path d="M14.9417153,49.2242318 L13.69178,48.4949176 L12.4664738,39.8517682 C12.4387659,39.643836 12.4818671,39.4172831 12.5773056,39.2124544 L13.8303196,39.9386652 C13.7318025,40.1434939 13.6887013,40.3731503 13.7164092,40.5779789 L14.9417153,49.2242318 Z" id="Fill-54" fill="#000000" fill-rule="evenodd"></path>
                            <path d="M79.9755145,1.89639391 C79.8739188,1.55190932 79.5568169,1.42777073 79.2243218,1.62328901 L14.2769406,39.42349 C14.0891424,39.5321113 13.9290522,39.7214227 13.8302272,39.9386652 L12.5775211,39.2124544 C12.6791168,38.9952119 12.8361284,38.8059006 13.0236187,38.6941758 L77.9709999,0.897078251 C78.3404389,0.682939181 78.9192268,0.670525322 79.2640365,0.872250533 C79.5814462,1.05845842 79.8831548,1.49604695 79.9755145,1.89639391" id="Fill-56" fill="#FFFFFF" fill-rule="evenodd"></path>
                            <path d="M32.1859593,90.9124846 L31.4082901,85.4168691 C31.3602631,85.0776604 31.0825681,84.9414183 30.7879404,85.1130399 L25.1259795,88.4082988 C24.8313518,88.5796101 24.6315469,88.9936123 24.679574,89.3331313 L25.457551,94.8287468 C25.5052702,95.1679555 25.7829652,95.3041976 26.0775928,95.1328863 L31.7395538,91.8373171 C32.0341814,91.6660058 32.2339864,91.2520036 32.1859593,90.9124846" id="Fill-58" fill="#565072" fill-rule="evenodd"></path>
                            <path d="M40.9416335,85.8231437 L40.1639643,80.3275283 C40.1156294,79.9883196 39.8382423,79.8520775 39.5436146,80.0236991 L33.8816537,83.318958 C33.587026,83.4902692 33.3872211,83.9042714 33.4352482,84.2437905 L34.2132252,89.7394059 C34.2609444,90.0786146 34.5386394,90.2148567 34.833267,90.0435455 L40.495228,86.7479762 C40.7898556,86.576665 40.9896606,86.1626628 40.9416335,85.8231437" id="Fill-60" fill="#EBEBEB" fill-rule="evenodd"></path>
                            <path d="M49.6973385,80.733927 L48.9196693,75.2383116 C48.8713344,74.8987925 48.5939472,74.7628608 48.2993196,74.934172 L42.6370508,78.2294309 C42.342731,78.4010525 42.1429261,78.8150547 42.1909531,79.1542634 L42.9686223,84.6498789 C43.0166494,84.9890876 43.2943444,85.1253297 43.588972,84.9540184 L49.250933,81.6587595 C49.5455606,81.4871379 49.7450577,81.0731357 49.6973385,80.733927" id="Fill-62" fill="#EBEBEB" fill-rule="evenodd"></path>
                            <path d="M58.4528587,75.6445861 L57.6751896,70.1489707 C57.6271625,69.809762 57.3494675,69.6735199 57.0548399,69.8448311 L51.3928789,73.1400901 C51.0982513,73.3117117 50.8984463,73.7257139 50.9464734,74.0649226 L51.7244504,79.560538 C51.7724775,79.8997467 52.0498646,80.0359888 52.3444923,79.8646775 L58.0067611,76.5694186 C58.3010809,76.3981074 58.5008858,75.9837948 58.4528587,75.6445861" id="Fill-64" fill="#EBEBEB" fill-rule="evenodd"></path>
                            <path d="M67.2087176,70.5552453 L66.4310485,65.0596298 C66.3827135,64.7204211 66.1050185,64.584179 65.8106988,64.7554903 L60.1484299,68.0507492 C59.8541102,68.2223708 59.6543052,68.636373 59.7023323,68.9755817 L60.4803093,74.4711971 C60.5280285,74.8107162 60.8057235,74.9466479 61.1000433,74.7753367 L66.7623122,71.4800778 C67.0569398,71.3087665 67.2564369,70.894454 67.2087176,70.5552453" id="Fill-66" fill="#EBEBEB" fill-rule="evenodd"></path>
                            <path d="M75.9642379,65.4659044 L75.1865687,59.970289 C75.1382338,59.6310803 74.8608467,59.4948382 74.566219,59.6661494 L68.9042581,62.9617187 C68.6096304,63.1330299 68.4098255,63.5470321 68.4578526,63.8862408 L69.2358296,69.3818563 C69.2838567,69.7213753 69.5612438,69.8573071 69.8558714,69.6859958 L75.5181403,66.3907369 C75.81246,66.2194257 76.012265,65.8051131 75.9642379,65.4659044" id="Fill-68" fill="#EBEBEB" fill-rule="evenodd"></path>
                            <path d="M84.7197889,60.3765325 L83.9424277,54.8809171 C83.8940927,54.5417084 83.6163977,54.4054663 83.322078,54.5767775 L77.6598091,57.8723468 C77.3651815,58.043658 77.1656844,58.4576602 77.2137115,58.7971793 L77.9913806,64.2924844 C78.0394077,64.6320034 78.3171027,64.7679352 78.6114225,64.5966239 L84.2736913,61.301365 C84.5683189,61.1300538 84.767816,60.7157412 84.7197889,60.3765325" id="Fill-70" fill="#EBEBEB" fill-rule="evenodd"></path>
                            <path d="M30.6640552,80.1581101 L29.8863861,74.6624947 C29.8380511,74.323286 29.560664,74.1870439 29.2660364,74.3586655 L23.6040754,77.6539244 C23.3094478,77.8252357 23.1096428,78.2392379 23.1576699,78.5787569 L23.9356469,84.0743723 C23.9833661,84.413581 24.2610611,84.5498231 24.5556888,84.3785119 L30.2176497,81.0829426 C30.5122774,80.9116314 30.7120823,80.4976292 30.6640552,80.1581101" id="Fill-72" fill="#683FEE" fill-rule="evenodd"></path>
                            <path d="M39.4196063,75.0688934 L38.6419371,69.573278 C38.59391,69.2337589 38.316215,69.0978272 38.0215874,69.2691384 L32.3596264,72.5643973 C32.0649988,72.7357086 31.8651939,73.1500211 31.9135288,73.4892298 L32.691198,78.9848453 C32.739225,79.324054 33.01692,79.4602961 33.3112398,79.2889848 L38.9735086,75.9934156 C39.2678284,75.8221043 39.4676333,75.4081021 39.4196063,75.0688934" id="Fill-74" fill="#EBEBEB" fill-rule="evenodd"></path>
                            <path d="M48.1752805,69.9795526 L47.3976113,64.4839371 C47.3495842,64.1447284 47.0718892,64.0084863 46.7772616,64.1797976 L41.1153006,67.4750565 C40.820673,67.6463677 40.6208681,68.0606803 40.6688951,68.399889 L41.4468722,73.8955044 C41.4948992,74.2347131 41.7725942,74.3709552 42.066914,74.199644 L47.7291828,70.9040747 C48.0235026,70.7330738 48.2233075,70.3187613 48.1752805,69.9795526" id="Fill-76" fill="#EBEBEB" fill-rule="evenodd"></path>
                            <path d="M56.9309854,64.8902117 L56.1533163,59.3945963 C56.1049813,59.0553876 55.8275942,58.9191455 55.5329666,59.0904567 L49.8710056,62.386026 C49.576378,62.5570269 49.376573,62.9713394 49.4246001,63.3105481 L50.2025771,68.8061636 C50.2506042,69.1453723 50.5279913,69.2816144 50.822619,69.1103031 L56.4848878,65.8150442 C56.7792076,65.6437329 56.9790125,65.2294204 56.9309854,64.8902117" id="Fill-78" fill="#EBEBEB" fill-rule="evenodd"></path>
                            <path d="M65.6868136,59.8008398 L64.9091444,54.3052244 C64.8608095,53.9660157 64.5831145,53.8297736 64.2887947,54.0010848 L58.6265259,57.2966541 C58.3318982,57.4679653 58.1324012,57.8819675 58.1804282,58.2211762 L58.9580974,63.7167917 C59.0061245,64.0560004 59.2838195,64.1922425 59.5781392,64.0209312 L65.2404081,60.7256723 C65.5350357,60.554361 65.7345328,60.1400485 65.6868136,59.8008398" id="Fill-80" fill="#EBEBEB" fill-rule="evenodd"></path>
                            <path d="M74.4423646,54.7114989 L73.6646955,49.2158835 C73.6163605,48.8766748 73.3389734,48.7404327 73.0443458,48.911744 L67.3820769,52.2073132 C67.0877571,52.3786245 66.8879522,52.7926267 66.9359793,53.1318354 L67.7139563,58.6274508 C67.7619834,58.9669698 68.0393705,59.1029016 68.3339981,58.9315903 L73.996267,55.6363314 C74.2905867,55.4650202 74.4903917,55.0507076 74.4423646,54.7114989" id="Fill-82" fill="#EBEBEB" fill-rule="evenodd"></path>
                            <path d="M83.1978849,49.6221581 L82.4202157,44.1265426 C82.3721886,43.7873339 82.0944936,43.6510918 81.8001739,43.8224031 L76.137905,47.1179723 C75.8432774,47.2892836 75.6437803,47.7032858 75.6914995,48.0428049 L76.4694766,53.5381099 C76.5175036,53.877629 76.7951986,54.0135607 77.0895184,53.8422495 L82.7517872,50.5469906 C83.046107,50.3756793 83.2459119,49.9613668 83.1978849,49.6221581" id="Fill-84" fill="#EBEBEB" fill-rule="evenodd"></path>
                            <path d="M29.142028,69.4038598 L28.3643588,63.9082444 C28.3163318,63.5687254 28.0386368,63.4327936 27.7440091,63.6041049 L22.0820482,66.8993638 C21.7874205,67.070675 21.5876156,67.4849876 21.6359505,67.8241963 L22.4136197,73.3198117 C22.4616468,73.6590204 22.7393418,73.7952625 23.0336615,73.6239512 L28.6959304,70.328382 C28.9902501,70.1570707 29.1900551,69.7430685 29.142028,69.4038598" id="Fill-86" fill="#FBD46E" fill-rule="evenodd"></path>
                            <path d="M37.8977022,64.314519 L37.120033,58.8189035 C37.072006,58.4796948 36.794311,58.3434527 36.4996833,58.514764 L30.8377224,61.8100229 C30.5430947,61.9813342 30.3432898,62.3956467 30.3913169,62.7348554 L31.1692939,68.2304708 C31.217321,68.5696795 31.495016,68.7059216 31.7893357,68.5346104 L37.4516046,65.2390411 C37.7459243,65.0677299 37.9457293,64.6537277 37.8977022,64.314519" id="Fill-88" fill="#EBEBEB" fill-rule="evenodd"></path>
                            <path d="M46.6534072,59.2251781 L45.875738,53.7295627 C45.8277109,53.390354 45.5500159,53.2541119 45.2553883,53.4254231 L39.5934273,56.720682 C39.2987997,56.8919933 39.0989948,57.3063058 39.1470218,57.6455145 L39.9249989,63.14113 C39.9730259,63.4803387 40.2507209,63.6165808 40.5450407,63.4452695 L46.2070017,60.1497003 C46.5016293,59.978389 46.7014342,59.5643868 46.6534072,59.2251781" id="Fill-90" fill="#EBEBEB" fill-rule="evenodd"></path>
                            <path d="M55.4090814,54.1358062 L54.6314122,48.6401908 C54.5830773,48.3009821 54.3056901,48.16474 54.0110625,48.3360512 L48.3491015,51.6313101 C48.0544739,51.8026214 47.854669,52.2169339 47.902696,52.5561426 L48.6806731,58.0517581 C48.7283923,58.3909668 49.0063951,58.5272089 49.3007149,58.3558976 L54.9629837,55.0606387 C55.2573035,54.8893275 55.4571084,54.4750149 55.4090814,54.1358062" id="Fill-92" fill="#EBEBEB" fill-rule="evenodd"></path>
                            <path d="M64.1646324,49.0464654 L63.3872711,43.5508499 C63.3389362,43.2116412 63.0612412,43.0753991 62.7669214,43.2467104 L57.1046526,46.5422796 C56.8100249,46.7135909 56.6105279,47.1275931 56.6585549,47.4668018 L57.4362241,52.9624172 C57.4842512,53.3019363 57.7619462,53.437868 58.0562659,53.2665568 L63.7185348,49.9712979 C64.0131624,49.7999866 64.2126595,49.3856741 64.1646324,49.0464654" id="Fill-94" fill="#EBEBEB" fill-rule="evenodd"></path>
                            <path d="M72.9204605,43.9571245 L72.1427914,38.4615091 C72.0944564,38.1223004 71.8170693,37.9860583 71.5224417,38.1573695 L65.8601728,41.4529388 C65.5658531,41.62425 65.3660481,42.0382522 65.4140752,42.3777713 L66.1920522,47.8730764 C66.2400793,48.2125954 66.5174664,48.3485272 66.8120941,48.1772159 L72.4743629,44.881957 C72.7686827,44.7106458 72.9684876,44.2963332 72.9204605,43.9571245" id="Fill-96" fill="#EBEBEB" fill-rule="evenodd"></path>
                            <path d="M81.6760116,38.8677836 L80.8983424,33.3721682 C80.8503153,33.0329595 80.5726203,32.8967174 80.2783006,33.0680287 L74.6160317,36.3635979 C74.3214041,36.5349092 74.121907,36.9489114 74.1696262,37.2884304 L74.9476033,42.7837355 C74.9956303,43.1232545 75.2733253,43.2591863 75.5676451,43.0878751 L81.229914,39.7926161 C81.5242337,39.6213049 81.7240387,39.2069923 81.6760116,38.8677836" id="Fill-98" fill="#EBEBEB" fill-rule="evenodd"></path>
                            <path d="M27.6201239,58.6493302 L26.8424548,53.1537148 C26.7944277,52.8145061 26.5167327,52.678264 26.2221051,52.8498856 L20.5601441,56.1451445 C20.2655165,56.3164558 20.0657115,56.730458 20.1137386,57.069977 L20.8917156,62.5655924 C20.9397427,62.9048011 21.2174377,63.0410432 21.5117574,62.869732 L27.1740263,59.5741627 C27.4683461,59.4028515 27.668151,58.9888493 27.6201239,58.6493302" id="Fill-100" fill="#FA6A72" fill-rule="evenodd"></path>
                            <path d="M36.3758289,53.5601445 L35.5981597,48.0645291 C35.5501327,47.7250101 35.2724377,47.5890783 34.97781,47.7603896 L29.3158491,51.0556485 C29.0212214,51.2269597 28.8214165,51.6412723 28.8694436,51.980481 L29.6474206,57.4760964 C29.6954477,57.8153051 29.9731427,57.9515472 30.2674624,57.7802359 L35.9294234,54.484977 C36.224051,54.3133554 36.423856,53.8993532 36.3758289,53.5601445" id="Fill-102" fill="#EBEBEB" fill-rule="evenodd"></path>
                            <path d="M45.1315031,48.4707726 L44.3538339,42.9751572 C44.3058069,42.6356382 44.0281119,42.4997064 43.7334842,42.6710177 L38.0715233,45.9662766 C37.7768956,46.1375878 37.5770907,46.5519004 37.6251178,46.8911091 L38.4030948,52.3867245 C38.450814,52.7259332 38.7288169,52.8621753 39.0231366,52.6908641 L44.6850976,49.3956051 C44.9797252,49.2239835 45.1795302,48.8099813 45.1315031,48.4707726" id="Fill-104" fill="#EBEBEB" fill-rule="evenodd"></path>
                            <path d="M53.8872081,43.3814318 L53.1095389,37.8858164 C53.061204,37.5466076 52.7838168,37.4103655 52.4891892,37.5816768 L46.8272282,40.8769357 C46.5326006,41.0485573 46.3327957,41.4625595 46.3808227,41.8017682 L47.1587998,47.2973836 C47.206519,47.6369027 47.484214,47.7728344 47.7788416,47.6015232 L53.4411104,44.3062643 C53.7354302,44.1346427 53.9352351,43.7206405 53.8872081,43.3814318" id="Fill-106" fill="#EBEBEB" fill-rule="evenodd"></path>
                            <path d="M62.6427283,38.2920909 L61.865367,32.7964755 C61.8170321,32.4572668 61.5393371,32.3210247 61.2450173,32.4923359 L55.5827485,35.7875948 C55.2881209,35.9592164 55.0886238,36.3732187 55.136343,36.7127377 L55.91432,42.2080428 C55.9623471,42.5475618 56.2400421,42.6834936 56.5343619,42.5121823 L62.1966307,39.2169234 C62.4909505,39.0456122 62.6907554,38.6312996 62.6427283,38.2920909" id="Fill-108" fill="#EBEBEB" fill-rule="evenodd"></path>
                            <path d="M71.3985565,33.2027501 L70.6208873,27.7071346 C70.5725524,27.3679259 70.2951652,27.2316838 70.0005376,27.4029951 L64.3382688,30.6985643 C64.043949,30.8698756 63.844144,31.2838778 63.8921711,31.6233968 L64.6701481,37.1187019 C64.7178674,37.458221 64.9955624,37.5941527 65.29019,37.4228415 L70.952151,34.1275826 C71.2467786,33.9562713 71.4465835,33.5419588 71.3985565,33.2027501" id="Fill-110" fill="#EBEBEB" fill-rule="evenodd"></path>
                            <path d="M80.1541075,28.1133782 L79.3764383,22.6177627 C79.3284113,22.278554 79.0507163,22.1423119 78.7560886,22.3136232 L73.0941277,25.6091924 C72.7995,25.7805037 72.600003,26.1945059 72.6477222,26.5340249 L73.4256992,32.02933 C73.4737263,32.3688491 73.7514213,32.5047808 74.045741,32.3334696 L79.7080099,29.0382107 C80.0023296,28.8668994 80.2021346,28.4525869 80.1541075,28.1133782" id="Fill-112" fill="#EBEBEB" fill-rule="evenodd"></path>
                            <path d="M26.2732108,48.935082 L26.0783317,47.5320056 C26.0303046,47.1924865 25.7529175,47.0562444 25.4582899,47.227866 L19.796021,50.5231249 C19.5017013,50.6944362 19.3018963,51.1084384 19.3499234,51.4479574 L19.5448025,52.8510339 C19.5925217,53.1905529 19.8702167,53.3264847 20.1648443,53.1551734 L25.8268053,49.8599145 C26.1214329,49.6886033 26.3212379,49.2742907 26.2732108,48.935082" id="Fill-114" fill="#E6E6E6" fill-rule="evenodd"></path>
                            <path d="M35.0289158,43.8457412 L34.8340367,42.4426647 C34.7860096,42.1031457 34.5086225,41.9669036 34.2139949,42.1385252 L28.551726,45.4337841 C28.2574062,45.6050953 28.0576013,46.0190975 28.1056284,46.3586166 L28.3001996,47.761693 C28.3482267,48.1012121 28.6259217,48.2371438 28.9205493,48.0658326 L34.5825103,44.7705737 C34.8771379,44.5992624 35.0769428,44.1849499 35.0289158,43.8457412" id="Fill-116" fill="#E6E6E6" fill-rule="evenodd"></path>
                            <path d="M43.784436,38.7564003 L43.5898648,37.3533239 C43.5418377,37.0138048 43.2641427,36.8775627 42.9695151,37.0491843 L37.3075541,40.3444432 C37.0129265,40.5157545 36.8131216,40.9297567 36.8611486,41.2692757 L37.0560277,42.6723522 C37.1040548,43.0118712 37.3817498,43.147803 37.6760696,42.9764917 L43.3383384,39.6812328 C43.6326582,39.5099215 43.8324631,39.095609 43.784436,38.7564003" id="Fill-118" fill="#E6E6E6" fill-rule="evenodd"></path>
                            <path d="M52.5402949,33.6670594 L52.3454159,32.263983 C52.2973888,31.924464 52.0200016,31.7882219 51.725374,31.9598435 L46.0631052,35.2551024 C45.7684775,35.4264136 45.5686726,35.8404158 45.6170075,36.1799349 L45.8115788,37.5830113 C45.8596058,37.9225303 46.1373008,38.0584621 46.4319285,37.8871508 L52.0938895,34.5918919 C52.3885171,34.4205807 52.5880142,34.0062681 52.5402949,33.6670594" id="Fill-120" fill="#E6E6E6" fill-rule="evenodd"></path>
                            <path d="M61.2958152,28.5776875 L61.1009361,27.1746111 C61.0532169,26.8350921 60.7755219,26.69885 60.4808943,26.8704716 L54.8189333,30.1657305 C54.5243057,30.3370417 54.3245007,30.7510439 54.3725278,31.090563 L54.5674069,32.4936394 C54.615434,32.8331584 54.8928211,32.9690902 55.1874487,32.7977789 L60.8497176,29.50252 C61.1440373,29.3312088 61.3438423,28.9172066 61.2958152,28.5776875" id="Fill-122" fill="#E6E6E6" fill-rule="evenodd"></path>
                            <path d="M70.0513662,23.4883467 L69.856795,22.0852702 C69.808768,21.7457512 69.5313808,21.6095091 69.2367532,21.7811307 L63.5744843,25.0763896 C63.2801646,25.2477009 63.0800518,25.6617031 63.1283867,26.0012221 L63.3229579,27.4042985 C63.370985,27.7438176 63.64868,27.8797493 63.9429998,27.7087484 L69.6052686,24.4131792 C69.8998962,24.2418679 70.0993933,23.8278657 70.0513662,23.4883467" id="Fill-124" fill="#E6E6E6" fill-rule="evenodd"></path>
                            <path d="M78.8071944,18.3990058 L78.6123153,16.9959294 C78.5645961,16.6564103 78.2869011,16.5201682 77.9922734,16.6917898 L72.3303125,19.9870487 C72.0356848,20.15836 71.835572,20.5723622 71.883907,20.9118812 L72.0787861,22.315268 C72.1268131,22.6544767 72.4042003,22.7904085 72.6988279,22.6194076 L78.3610967,19.3238383 C78.6554165,19.1525271 78.8552214,18.7385249 78.8071944,18.3990058" id="Fill-126" fill="#E6E6E6" fill-rule="evenodd"></path>
                            <path d="M19.6729055,40.6490793 C19.5679232,39.9061099 20.0420366,38.9784842 20.7322719,38.5762752 C21.4225071,38.1743765 22.0671782,38.4505849 22.1724684,39.1935543 C22.2774506,39.9362135 21.8030293,40.8641494 21.113102,41.2660481 C20.4228667,41.6679468 19.7778877,41.3917384 19.6729055,40.6490793" id="Fill-128" fill="#000000" fill-rule="evenodd"></path>
                            <path d="M28.4348909,35.5509557 C28.3296008,34.8082965 28.8040221,33.8803606 29.4942573,33.4781515 C30.1844926,33.0762528 30.8291637,33.3527716 30.9344538,34.0954307 C31.0394361,34.8380898 30.5650148,35.7660258 29.8747795,36.1679245 C29.1848521,36.5701335 28.5398732,36.2939251 28.4348909,35.5509557" id="Fill-130" fill="#000000" fill-rule="evenodd"></path>
                            <path d="M37.1821604,30.4582631 C37.0768702,29.7156039 37.5512915,28.787668 38.2415268,28.3854589 C38.931762,27.9835602 39.5764331,28.260079 39.6817233,29.0027381 C39.7867055,29.7453972 39.3122842,30.6733332 38.6223568,31.0752319 C37.9321216,31.4774409 37.2871426,31.2012325 37.1821604,30.4582631" id="Fill-132" fill="#000000" fill-rule="evenodd"></path>
                            <path d="M54.6863355,20.2715434 C54.5810454,19.5288842 55.0554666,18.6009483 55.745394,18.1987392 C56.4359371,17.7968405 57.0806082,18.0733593 57.1855905,18.8160184 C57.2908806,19.5586775 56.8164593,20.4866135 56.126532,20.8885122 C55.4362967,21.2904108 54.7913177,21.0145128 54.6863355,20.2715434" id="Fill-134" fill="#000000" fill-rule="evenodd"></path>
                            <path d="M63.448167,15.1733887 C63.3428769,14.4307295 63.8172981,13.5027936 64.5075334,13.1005845 C65.1977687,12.6986858 65.8424398,12.9752046 65.9477299,13.7178637 C66.0527121,14.4605228 65.5785987,15.3884588 64.8883635,15.7903575 C64.1981282,16.1925665 63.5534571,15.9163581 63.448167,15.1733887" id="Fill-136" fill="#000000" fill-rule="evenodd"></path>
                            <path d="M72.1955904,10.0808823 C72.0903002,9.3379128 72.5644137,8.40997683 73.2546489,8.00807814 C73.945192,7.60617945 74.5895553,7.88238782 74.6948454,8.62535728 C74.8001355,9.36801641 74.3257142,10.2959524 73.6357869,10.6978511 C72.9455516,11.0997498 72.3005726,10.8235414 72.1955904,10.0808823" id="Fill-138" fill="#000000" fill-rule="evenodd"></path>
                            <path d="M18.7655324,32.2638278 C17.8296202,31.7207215 16.9368092,31.6400314 16.2471897,32.0434818 C15.5575702,32.4438288 15.1758165,33.2631435 15.1758165,34.3524596 C15.1758165,34.8366001 15.2558617,35.3486718 15.39748,35.85764 L15.9454812,35.5410866 C15.8469641,35.1376362 15.7915482,34.7372893 15.7915482,34.3524596 C15.7915482,33.4959033 16.0624702,32.8659 16.5550556,32.5803812 C16.7490111,32.4686565 16.9706745,32.4127941 17.2169672,32.4127941 C17.5894849,32.4127941 18.0112611,32.5431397 18.4576666,32.8007272 C20.0955129,33.7565944 21.4285721,36.084193 21.4285721,37.9897204 C21.4285721,38.1324797 21.4224148,38.2690322 21.4070215,38.3962742 C21.3331337,39.0448984 21.077605,39.522832 20.6681434,39.7617987 C20.4033788,39.9138685 20.0893556,39.963524 19.7383885,39.9107651 C19.6768154,40.1155937 19.6491074,40.3266293 19.6614221,40.5252511 C19.7784111,40.5438719 19.8954001,40.5531823 20.0093105,40.5531823 C20.3602776,40.5531823 20.6866154,40.4693887 20.9760093,40.2986981 C21.5055386,39.9914551 21.8503483,39.4390384 21.9827306,38.7035173 C22.0227532,38.4800678 22.0443038,38.241101 22.0443038,37.9897204 C22.0443038,35.8855712 20.572705,33.3159024 18.7655324,32.2638278" id="Fill-140" fill="#F5F5F5" fill-rule="evenodd"></path>
                            <path d="M27.5275179,27.1656731 C26.5916057,26.6225668 25.6987947,26.5418767 25.0091752,26.9453271 C24.3195556,27.3456741 23.937802,28.1649888 23.937802,29.2543049 C23.937802,29.7384454 24.0178471,30.2505171 24.1594654,30.7594853 L24.7074666,30.4429319 C24.6089495,30.0394815 24.5535337,29.6391346 24.5535337,29.2543049 C24.5535337,28.3977486 24.8244556,27.7677453 25.317041,27.4822265 C25.5109965,27.3705018 25.7326599,27.3146394 25.9789526,27.3146394 C26.3514703,27.3146394 26.7732465,27.444985 27.219652,27.7025725 C28.8574984,28.6584397 30.1905575,30.9860383 30.1905575,32.8915657 C30.1905575,33.034325 30.1844002,33.1708775 30.1690069,33.2981195 C30.0951191,33.9467437 29.8395905,34.4246773 29.4301289,34.663644 C29.1653642,34.8157138 28.8513411,34.8653693 28.500374,34.8126104 C28.4388008,35.017439 28.4110929,35.2284746 28.4234075,35.4270964 C28.5403965,35.4457172 28.6573856,35.4550276 28.7712959,35.4550276 C29.122263,35.4550276 29.4486008,35.371234 29.7379947,35.2005434 C30.267524,34.8933004 30.6123338,34.3408837 30.7447161,33.6053626 C30.7847386,33.3819131 30.8062893,33.1429463 30.8062893,32.8915657 C30.8062893,30.7874165 29.3346905,28.2177477 27.5275179,27.1656731" id="Fill-142" fill="#F5F5F5" fill-rule="evenodd"></path>
                            <path d="M36.2740484,22.0739116 C35.3381362,21.5308052 34.4453253,21.4501151 33.7557057,21.8535656 C33.0660862,22.2539125 32.6843326,23.0732272 32.6843326,24.1625434 C32.6843326,24.6466839 32.7643777,25.1587556 32.905996,25.6677238 L33.4539972,25.3511704 C33.3554801,24.94772 33.3000643,24.547373 33.3000643,24.1625434 C33.3000643,23.3059871 33.5709862,22.6759837 34.0635716,22.390465 C34.2575271,22.2787402 34.4791905,22.2228779 34.7254832,22.2228779 C35.0980009,22.2228779 35.5197771,22.3532234 35.9661826,22.610811 C37.604029,23.5666781 38.9370881,25.8942767 38.9370881,27.7998041 C38.9370881,27.9425635 38.9309308,28.0791159 38.9155375,28.206358 C38.8416497,28.8549821 38.586121,29.3329157 38.1766594,29.5718825 C37.9118948,29.7239523 37.5978716,29.7736077 37.2469046,29.7208488 C37.1853314,29.9256775 37.1576235,30.1367131 37.1699381,30.3353348 C37.2869271,30.3539556 37.4039161,30.363266 37.5178265,30.363266 C37.8687936,30.363266 38.1951314,30.2794724 38.4845253,30.1087819 C39.0140546,29.8015389 39.3588643,29.2491221 39.4912467,28.513601 C39.5312692,28.2901515 39.5528198,28.0511847 39.5528198,27.7998041 C39.5528198,25.695655 38.081221,23.1259861 36.2740484,22.0739116" id="Fill-144" fill="#F5F5F5" fill-rule="evenodd"></path>
                            <path d="M53.7822566,11.8997609 C52.8463444,11.3566546 51.9535334,11.2759645 51.263606,11.6794149 C50.5742944,12.0797619 50.1925407,12.8990766 50.1925407,13.9883927 C50.1925407,14.4725332 50.2725858,14.9846049 50.4142041,15.4935731 L50.9622053,15.1770197 C50.8636883,14.7735693 50.8082724,14.3732223 50.8082724,13.9883927 C50.8082724,13.1318364 51.0791944,12.5018331 51.5714719,12.2163143 C51.7657352,12.1045896 51.9873987,12.0487272 52.2336913,12.0487272 C52.606209,12.0487272 53.0279852,12.1790727 53.4743907,12.4366603 C55.1119292,13.3925275 56.4449884,15.7201261 56.4449884,17.6256534 C56.4449884,17.7684128 56.4391389,17.9049653 56.4237457,18.0322073 C56.3498578,18.6808315 56.0943292,19.158765 55.6848676,19.3977318 C55.4197951,19.5498016 55.1060798,19.599457 54.7551127,19.5466981 C54.6935395,19.7515268 54.6658316,19.9625624 54.6781462,20.1611842 C54.7951353,20.1798049 54.9121243,20.1891153 55.0260347,20.1891153 C55.3770017,20.1891153 55.7033395,20.1053218 55.9927335,19.9346312 C56.5219549,19.6273882 56.8670725,19.0749715 56.9994548,18.3394503 C57.0394774,18.1160009 57.0607201,17.8770341 57.0607201,17.6256534 C57.0607201,15.5215043 55.5894292,12.9518355 53.7822566,11.8997609" id="Fill-146" fill="#F5F5F5" fill-rule="evenodd"></path>
                            <path d="M62.5441189,6.80160621 C61.6082067,6.25849987 60.7153957,6.17780978 60.0257762,6.58126021 C59.3361567,6.98160716 58.954403,7.80092187 58.954403,8.890238 C58.954403,9.37437851 59.0344481,9.8864502 59.1760664,10.3954184 L59.7240676,10.078865 C59.6258584,9.67541459 59.5701347,9.27506764 59.5701347,8.890238 C59.5701347,8.03368172 59.8413645,7.40367837 60.333642,7.11815961 C60.5275975,7.00643488 60.7492609,6.95057252 60.9958615,6.95057252 C61.3680713,6.95057252 61.7898475,7.08091804 62.236253,7.33850561 C63.8740994,8.29437277 65.2071586,10.6219714 65.2071586,12.5274987 C65.2071586,12.6702581 65.2010012,12.8068106 65.1856079,12.9340526 C65.1117201,13.5826768 64.8561915,14.0606103 64.4467299,14.2995771 C64.1819653,14.4516469 63.8679421,14.5013023 63.516975,14.4485434 C63.4554018,14.6533721 63.4276939,14.8644077 63.4400085,15.0630295 C63.5569976,15.0816502 63.6739866,15.0909606 63.787897,15.0909606 C64.138864,15.0909606 64.4652018,15.0071671 64.7545957,14.8364765 C65.284125,14.5292335 65.6292426,13.9768168 65.7613171,13.2412956 C65.8013397,13.0178462 65.8228903,12.7788794 65.8228903,12.5274987 C65.8228903,10.4233496 64.3512915,7.85368077 62.5441189,6.80160621" id="Fill-148" fill="#F5F5F5" fill-rule="evenodd"></path>
                            <path d="M71.2906495,1.70984464 C70.3547373,1.16673831 69.4622341,1.08604822 68.7723068,1.48949864 C68.0826872,1.8898456 67.7009336,2.7091603 67.7009336,3.79847644 C67.7009336,4.28261695 67.7812866,4.79468864 67.9229049,5.30365686 L68.4705982,4.98710345 C68.372389,4.58365303 68.3166653,4.18330607 68.3166653,3.79847644 C68.3166653,2.94192016 68.5878951,2.31191681 69.0801726,2.02639805 C69.2741281,1.91467332 69.4957915,1.85881095 69.7423921,1.85881095 C70.1149098,1.85881095 70.5363781,1.98915647 70.9827836,2.24674405 C72.62063,3.2026112 73.9536891,5.53020979 73.9536891,7.43573716 C73.9536891,7.57849654 73.9475318,7.71504899 73.9321385,7.84229105 C73.8582507,8.49091519 73.6027221,8.96884877 73.1935683,9.20781555 C72.9284958,9.35988533 72.6144727,9.40954077 72.2635056,9.35678186 C72.2019324,9.56161054 72.1742245,9.77264614 72.1865391,9.97126789 C72.3035281,9.98988868 72.4205172,9.99919907 72.5344275,9.99919907 C72.8857025,9.99919907 73.2117324,9.91540552 73.5014342,9.74471496 C74.0306556,9.43747195 74.3757732,8.88505522 74.5078477,8.14953406 C74.5478702,7.9260846 74.5694208,7.68711781 74.5694208,7.43573716 C74.5694208,5.33158804 73.0978221,2.7619192 71.2906495,1.70984464" id="Fill-150" fill="#F5F5F5" fill-rule="evenodd"></path>
                        </g>
                    </g>
                </g>
            </g>
        </g>
    </g>
</svg>