<?xml version="1.0" encoding="UTF-8"?>
<svg width="63px" height="47px" viewBox="0 0 63 47" version="1.1" xmlns="http://www.w3.org/2000/svg" xmlns:xlink="http://www.w3.org/1999/xlink">
    <title>ic / team</title>
    <g id="로그인-후" stroke="none" stroke-width="1" fill="none" fill-rule="evenodd">
        <g id="팀메이킹_프로젝트-목록-조회_PC(1200)" transform="translate(-943.000000, -249.000000)" fill-rule="nonzero">
            <g id="팀-만들기" transform="translate(926.000000, 249.000000)">
                <g id="ic-/-team" transform="translate(17.932773, 0.000000)">
                    <g id="Group" transform="translate(17.877566, 2.168763)">
                        <path d="M12.8268128,19.5600928 C18.2712823,19.5600928 22.70178,15.1718791 22.70178,9.7780189 C22.70178,4.38618625 18.2719647,0 12.8268128,0 C7.38302554,0 2.95457491,4.38618625 2.95457491,9.7780189 C2.95457491,15.1718791 7.38302554,19.5600928 12.8268128,19.5600928 Z" id="Path" fill="#F9EFE3"></path>
                        <path d="M20.0269685,17.9549784 C18.0850008,19.6526826 15.5384711,20.6921209 12.7503896,20.6921209 C9.98823732,20.6921209 7.39053138,19.671606 5.45402247,18.0016112 C5.43764607,18.0124246 5.2725174,18.0279689 5.25409396,18.036079 C2.06342599,19.5310318 -2.4241937e-15,22.1134074 -2.4241937e-15,25.3087678 L-2.4241937e-15,42.8967664 L25.1452749,42.8967664 L25.1452749,25.3067402 C25.1445925,22.123545 23.2749539,19.4492555 20.0269685,17.9549784 Z" id="Path" fill="#FFDD05"></path>
                    </g>
                    <path d="M12.162204,26.319145 L12.162204,34.877277 L1.87577978,34.877277 L1.87577978,24.8214888 C1.87577978,22.968342 2.99824531,21.5997708 4.79828425,20.7542979 C5.97465542,21.7207457 7.5863658,22.302642 9.23014662,22.302642 C10.7797632,22.302642 12.2563683,21.7815711 13.400669,20.9124439 L14.22563,21.4875818 C12.4597085,23.3049092 12.162204,26.1833017 12.162204,26.319145 Z M9.33454615,21.1706139 C6.22030137,21.1706139 3.68673632,18.6598771 3.68673632,15.5740025 C3.68673632,12.4881278 6.22030137,9.977391 9.33454615,9.977391 C12.4515203,9.977391 14.9878148,12.4881278 14.9878148,15.5740025 C14.9878148,18.6598771 12.4522027,21.1706139 9.33454615,21.1706139 Z" id="Shape" fill="#E5ECF7"></path>
                    <path d="M46.7477892,21.6457278 L47.6512205,21.0712658 C48.7968859,21.9383655 50.2496087,22.4601121 51.7985429,22.4601121 C53.4423238,22.4601121 55.0117284,21.8782159 56.188782,20.9117681 C57.9895033,21.7579168 59.0218986,23.1258122 59.0218986,24.978959 L59.0218986,34.877277 L48.7368391,34.877277 L48.7368391,26.477291 C48.7368391,26.3414477 48.5150754,23.4623793 46.7477892,21.6457278 Z M46.0859099,15.7307968 C46.0859099,12.6449221 48.6222043,10.1341853 51.7391785,10.1341853 C54.8534233,10.1341853 57.3869883,12.6449221 57.3869883,15.7307968 C57.3869883,18.8166714 54.8534233,21.3280841 51.7391785,21.3280841 C48.6222043,21.3280841 46.0859099,18.8166714 46.0859099,15.7307968 Z" id="Shape" fill="#E5ECF7"></path>
                    <g id="Group" fill="#454B53">
                        <path d="M30.4839802,24.0875291 C23.7805751,24.0875291 18.3258703,18.6842073 18.3258703,12.042075 C18.3258703,5.40197022 23.7805751,0 30.4839802,0 C37.18875,0 42.6448195,5.40197022 42.6448195,12.042075 C42.6448195,18.6842073 37.18875,24.0875291 30.4839802,24.0875291 Z M30.4839802,3.39608412 C25.6700019,3.39608412 21.7546784,7.2747163 21.7546784,12.042075 C21.7546784,16.812137 25.6700019,20.691445 30.4839802,20.691445 C35.2986409,20.691445 39.2160114,16.812137 39.2160114,12.042075 C39.2153291,7.2747163 35.2979585,3.39608412 30.4839802,3.39608412 Z" id="Shape"></path>
                        <path d="M43.4390747,46.3502967 C42.4919731,46.3502967 41.7243295,45.5899793 41.7243295,44.6519167 L41.7243295,27.5707963 C41.7243295,24.7890486 40.1255838,22.5324267 37.2228675,21.2185984 C36.3617419,20.8286401 35.9837201,19.821642 36.3767536,18.9680591 C36.7711519,18.1144761 37.7864885,17.7393862 38.6489787,18.1300204 C42.7833365,20.0027665 45.1531381,23.4434559 45.1531381,27.5714722 L45.1531381,44.6519167 C45.1538199,45.5899793 44.3861764,46.3502967 43.4390747,46.3502967 Z" id="Path"></path>
                        <path d="M17.6987908,46.3516484 C16.7516892,46.3516484 15.9840456,45.591331 15.9840456,44.6532684 L15.9840456,27.5714722 C15.9840456,23.5117155 18.2637765,20.1149555 22.2391468,18.252347 C23.0961782,17.8502236 24.1169736,18.2131484 24.5222894,19.0606488 C24.9276053,19.9081492 24.5618657,20.920554 23.706199,21.3220015 C20.897647,22.6378574 19.413536,24.7991862 19.413536,27.5714722 L19.413536,44.6525925 C19.413536,45.591331 18.6458924,46.3516484 17.6987908,46.3516484 Z" id="Path"></path>
                        <path d="M9.328405,23.4819786 C4.95454237,23.4819786 1.39472312,19.9554578 1.39472312,15.6213111 C1.39472312,11.2864885 4.95454237,7.76064356 9.328405,7.76064356 C13.7063617,7.76064356 17.268228,11.2864885 17.268228,15.6213111 C17.2675457,19.9554578 13.7063617,23.4819786 9.328405,23.4819786 Z M9.328405,11.1567277 C6.84465149,11.1567277 4.82353119,13.1592346 4.82353119,15.6206353 C4.82353119,18.0820359 6.84465149,20.0845428 9.328405,20.0845428 C11.8162526,20.0845428 13.8387376,18.0820359 13.8387376,15.6206353 C13.8387376,13.1592346 11.8155703,11.1567277 9.328405,11.1567277 Z" id="Shape"></path>
                        <path d="M1.71474521,36.4823914 C0.767643598,36.4823914 -1.21209685e-15,35.722074 -1.21209685e-15,34.7840114 L-1.21209685e-15,24.8687975 C-1.21209685e-15,22.1438201 1.42884062,19.9723538 4.0231348,18.7544944 C4.87811918,18.3543985 5.90096163,18.7139441 6.30627745,19.5621203 C6.71227562,20.4096207 6.34790079,21.4220255 5.49155171,21.8234731 C4.10365209,22.4749805 3.42949042,23.4711652 3.42949042,24.8687975 L3.42949042,34.7840114 C3.42949042,35.722074 2.66184682,36.4823914 1.71474521,36.4823914 Z" id="Path"></path>
                        <path d="M51.705061,23.4819786 C47.3291513,23.4819786 43.7686497,19.9554578 43.7686497,15.6213111 C43.7686497,11.2864885 47.3291513,7.76064356 51.705061,7.76064356 C56.0809707,7.76064356 59.6407899,11.2864885 59.6407899,15.6213111 C59.6407899,19.9554578 56.0809707,23.4819786 51.705061,23.4819786 Z M51.705061,11.1567277 C49.2192604,11.1567277 47.1981401,13.1592346 47.1981401,15.6206353 C47.1981401,18.0820359 49.2199428,20.0845428 51.705061,20.0845428 C54.1901792,20.0845428 56.2112995,18.0820359 56.2112995,15.6206353 C56.2112995,13.1592346 54.1901792,11.1567277 51.705061,11.1567277 Z" id="Shape"></path>
                        <path d="M59.4197086,36.4823914 C58.4732893,36.4823914 57.7056457,35.722074 57.7056457,34.7840114 L57.7056457,24.8687975 C57.7056457,23.4434559 57.0048724,22.4324028 55.5610201,21.7781919 C54.6998946,21.3882336 54.3218727,20.3798839 54.716271,19.5276526 C55.1106692,18.6740697 56.1287352,18.3010073 56.988496,18.6909656 C59.6619428,19.9034183 61.1344538,22.0971873 61.1344538,24.8694733 L61.1344538,34.7846872 C61.1344538,35.722074 60.3668102,36.4823914 59.4197086,36.4823914 Z" id="Path"></path>
                    </g>
                </g>
            </g>
        </g>
    </g>
</svg>