<?xml version="1.0" encoding="UTF-8"?>
<svg width="105px" height="105px" viewBox="0 0 105 105" version="1.1" xmlns="http://www.w3.org/2000/svg" xmlns:xlink="http://www.w3.org/1999/xlink">
    <title>팀워크_원</title>
    <defs>
        <circle id="path-1" cx="47.5" cy="47.5" r="47.5"></circle>
        <filter x="-6.8%" y="-6.8%" width="117.9%" height="117.9%" filterUnits="objectBoundingBox" id="filter-3">
            <feOffset dx="2" dy="2" in="SourceAlpha" result="shadowOffsetOuter1"></feOffset>
            <feGaussianBlur stdDeviation="2.5" in="shadowOffsetOuter1" result="shadowBlurOuter1"></feGaussianBlur>
            <feColorMatrix values="0 0 0 0 0   0 0 0 0 0   0 0 0 0 0  0 0 0 0.2 0" type="matrix" in="shadowBlurOuter1"></feColorMatrix>
        </filter>
    </defs>
    <g id="로그인-후" stroke="none" stroke-width="1" fill="none" fill-rule="evenodd">
        <g id="서비스-소개_pc(1200)" transform="translate(-379.000000, -2089.000000)">
            <g id="팀워크_원" transform="translate(382.000000, 2092.000000)">
                <mask id="mask-2" fill="white">
                    <use xlink:href="#path-1"></use>
                </mask>
                <g id="Oval">
                    <use fill="black" fill-opacity="1" filter="url(#filter-3)" xlink:href="#path-1"></use>
                    <use fill="#FFFFFF" fill-rule="evenodd" xlink:href="#path-1"></use>
                </g>
                <g id="teamwork" mask="url(#mask-2)">
                    <g transform="translate(-16.192937, -14.774542)">
                        <path d="M78.3328303,48.7675456 C78.3328303,48.7675456 68.2019774,51.8185481 68.7922805,58.4127527 L123.773469,90.7699443 L152.115954,90.7699443 L78.3328303,48.7675456 Z" id="Fill-3" fill="#FBD46E"></path>
                        <path d="M72.8575933,63.4566986 C72.8575933,63.4566986 87.873244,54.9681267 89.4470832,54.2299406 C91.0206956,53.4917546 92.7419405,53.442512 93.3322436,54.475927 C93.3322436,54.475927 94.7582236,53.442512 96.3320628,54.2299406 C97.9056752,55.0173693 98.0533077,55.952299 98.0533077,55.952299 C98.0533077,55.952299 99.4303036,55.4600994 100.364629,56.4935144 C101.299181,57.5269295 101.24997,59.0647981 101.24997,59.0647981 C101.24997,59.0647981 103.526141,59.6675101 103.027229,62.9032292 L101.793784,62.1968127 C101.793784,62.1968127 89.8042585,69.9281369 87.9782422,70.961325 C86.1522258,71.9947401 84.5291758,72.1996531 83.9883103,71.7035957 L82.6968097,72.4286201 C82.6968097,72.4286201 71.5132534,70.4691254 72.8575933,63.4566986" id="Fill-5" fill="#FFE9E3"></path>
                        <path d="M90.4306873,56.1490201 C90.8726776,55.7979676 91.3470972,55.5029655 91.8287736,55.221125 C92.3138517,54.9447307 92.806867,54.6821789 93.3320849,54.4759043 C92.8903213,54.8274107 92.4161286,55.1224128 91.9339986,55.4040263 C91.4486937,55.6797398 90.9556784,55.9425186 90.4306873,56.1490201" id="Fill-7" fill="#FFA784"></path>
                        <path d="M93.5781163,58.1667436 C94.2573163,57.6759055 94.979831,57.2545064 95.7202611,56.8673729 C96.0919502,56.6765292 96.4695356,56.4956702 96.8568724,56.3359152 C97.2426217,56.1747987 97.6410706,56.0316092 98.053353,55.9521856 C97.6657894,56.1101252 97.2972752,56.300515 96.9255861,56.4856855 L95.8170953,57.0550396 C95.0771188,57.4340038 94.3400903,57.8197758 93.5781163,58.1667436" id="Fill-9" fill="#FFA784"></path>
                        <path d="M0,105.566361 L72.8575253,63.4567666 C72.8575253,63.4567666 81.1360556,65.5235967 82.7588788,72.6837515 L12.7444005,113.022992 L0,105.566361 Z" id="Fill-13" fill="#FA6A72"></path>
                        <path d="M10.0218459,29.6069645 L63.8744185,65.4743995 C63.8744185,65.4743995 51.7764934,69.1403678 53.8419872,76.4482506 L10.0218459,45.1819406 L10.0218459,29.6069645 Z" id="Fill-15" fill="#683FEE"></path>
                        <path d="M65.0546845,82.6732714 L53.553639,76.2655989 C53.553639,76.2655989 50.7438598,71.0104769 54.2845445,68.0579598 C57.8254559,65.1052157 63.8743051,65.4744221 63.8743051,65.4744221 C63.8743051,65.4744221 77.7918967,73.7170077 78.8246437,74.4551937 C79.8571638,75.1933797 79.8081798,76.1283095 79.6605473,77.8506679 C79.5131416,79.5732532 78.3327622,81.2463689 76.3164792,79.9174979 C76.3164792,79.9174979 76.1196359,82.427285 75.8738085,83.2639563 C75.6279812,84.1004008 74.3001961,85.5275301 72.628162,84.2479018 C72.628162,84.2479018 72.9232002,86.6592036 71.0543228,86.6101878 C69.1856722,86.5609452 68.7674936,85.0353305 68.7674936,85.0353305 C68.7674936,85.0353305 68.1529253,86.4624599 66.3332588,85.8720018 C64.5135922,85.2815438 65.0546845,82.6732714 65.0546845,82.6732714" id="Fill-17" fill="#FFD0C0"></path>
                        <path d="M64.8087664,78.1460784 C65.5394451,78.4188419 66.2549296,78.7295018 66.9602092,79.0646696 C67.3144364,79.22919 67.6589121,79.4143605 68.0006666,79.6074734 C68.1709768,79.7048241 68.3390193,79.8073941 68.5036601,79.9194949 C68.5841663,79.9803107 68.6683009,80.0309149 68.7447251,80.1037577 C68.7832774,80.1402926 68.8234171,80.1668428 68.8606087,80.2120008 C68.9005216,80.2573857 68.9311366,80.3050399 68.9558554,80.3538287 C69.0542771,80.5510263 69.0855724,80.7516277 69.1146,80.949733 C69.1397724,81.1482921 69.1497506,81.3461704 69.1545129,81.543368 C69.1608627,81.9373092 69.1481632,82.3294351 69.1109716,82.7190648 C69.0415775,83.4985511 68.9295492,84.2719104 68.7674029,85.0352851 C68.8043677,84.647017 68.8447342,84.2596565 68.8719476,83.8713884 C68.9057375,83.4840279 68.9331776,83.0962136 68.9488253,82.7083993 C68.960391,82.3208119 68.9785332,81.9336784 68.962432,81.5488142 C68.9433826,81.1707576 68.9200245,80.7666047 68.7685368,80.4509525 C68.7352004,80.3708481 68.6807737,80.3231939 68.6077512,80.2580665 C68.5447069,80.1940737 68.4617062,80.142108 68.3877766,80.0842422 C68.2324337,79.9748645 68.0698338,79.8716138 67.9036056,79.7731284 C67.5722829,79.5750232 67.2282607,79.3952988 66.8874134,79.2092206 C66.2009565,78.8454603 65.5040677,78.4984925 64.8087664,78.1460784" id="Fill-19" fill="#EA8865"></path>
                        <path d="M69.0625091,76.448364 C69.8428522,76.7188583 70.6036923,77.0485798 71.3318764,77.4486481 C71.6967622,77.647661 72.0480413,77.8754934 72.3682518,78.1548377 C72.5249554,78.2975733 72.6789376,78.4527898 72.7828019,78.6597451 C72.8757809,78.8755505 72.8964177,79.0859097 72.9245382,79.2955881 C72.9837272,80.1318056 72.949257,80.9584923 72.8936964,81.7838174 C72.8336002,82.6084617 72.7499191,83.4306098 72.6281394,84.2479926 L72.681659,83.0107992 C72.7025225,82.5989308 72.7199844,82.1870625 72.7315501,81.7754211 C72.7537744,80.9534999 72.7884714,80.1256786 72.7145418,79.3160114 C72.7016154,79.2168453 72.6920907,79.1158638 72.6764431,79.0182862 C72.6517243,78.9270624 72.6403854,78.822904 72.600926,78.7459765 C72.5224608,78.5807754 72.3845798,78.4319128 72.2394419,78.2968926 C71.9434966,78.0263983 71.5967531,77.8056006 71.2504631,77.5884337 C70.9014518,77.3744437 70.5397409,77.1786077 70.1728141,76.9923025 C69.8088355,76.8003242 69.4362392,76.6237768 69.0625091,76.448364" id="Fill-21" fill="#EA8865"></path>
                        <path d="M71.8904759,74.0616609 C72.6000642,74.2647585 73.2930978,74.5245873 73.9673087,74.8309356 C74.3067953,74.9795713 74.6342628,75.1554379 74.9542465,75.3460547 C75.2753641,75.5341752 75.584009,75.7515691 75.8586371,76.0182056 C75.9244027,76.0885522 75.9951574,76.1527719 76.0477699,76.2378687 C76.102877,76.3191077 76.166148,76.3964891 76.2008451,76.4872589 C76.2892885,76.6608563 76.3462098,76.8444384 76.3911118,77.0280205 C76.4779678,77.3965462 76.5190146,77.7709719 76.5174271,78.1431284 C76.5215091,78.8878952 76.4394155,79.6269889 76.279537,80.3481556 C76.3165018,79.9809915 76.3471169,79.6142812 76.3575487,79.2468901 C76.3741034,78.8799529 76.3763712,78.5132426 76.3550541,78.1490284 C76.3314692,77.7852682 76.2965454,77.4217348 76.2049271,77.0749939 C76.1597983,76.9025311 76.1031038,76.7323376 76.0212369,76.5789365 C75.9885809,76.4963359 75.9309793,76.4316624 75.8819952,76.3615426 C75.83732,76.2884729 75.768833,76.2299263 75.7082833,76.1661605 C75.4592811,75.9158626 75.1649232,75.6986956 74.8542374,75.5096674 C74.5462729,75.3154198 74.2217536,75.146134 73.8970075,74.9763943 C73.5722615,74.8064277 73.238671,74.6525728 72.9032664,74.5021217 C72.5701295,74.3462245 72.2304161,74.2050773 71.8904759,74.0616609" id="Fill-23" fill="#EA8865"></path>
                        <path d="M159.635504,0 L135.535581,0 L45.8750499,50.8345346 C45.8750499,50.8345346 54.1370254,52.4584077 56.6821547,59.5443581 L159.635504,0.666704741 L159.635504,0 Z" id="Fill-25" fill="#565072"></path>
                        <path d="M33.6788165,64.859252 C33.6788165,64.859252 32.6460696,65.8434244 31.4659169,65.2039506 C30.2855375,64.564023 30.4177491,63.5798506 30.3762487,62.1034786 C30.3347484,60.6273334 30.1873427,60.0366485 31.514901,59.1509614 C32.8426861,58.2650474 46.0672442,50.7281977 46.0672442,50.7281977 C46.0672442,50.7281977 50.7928439,50.2439404 53.9402955,52.5075142 C57.0877471,54.7713149 56.6820413,59.5446757 56.6820413,59.5446757 C56.6820413,59.5446757 56.2026327,59.8399048 56.2518435,60.4796055 C56.3008275,61.1193062 55.6123296,61.9065079 54.087928,62.6939366 C52.5632996,63.4813653 44.8914004,67.3690391 44.9406112,67.7627534 C44.989822,68.1562408 44.8555695,70.0524236 44.645573,70.4200415 C44.25234,71.1089849 41.8915812,72.0439146 41.0556776,70.0755699 C41.0556776,70.0755699 41.0556776,71.7979283 38.7933404,71.6996699 C36.53123,71.6011846 37.219728,69.2391255 37.219728,69.2391255 C37.219728,69.2391255 34.4657361,70.6167853 34.0230655,68.5009394 C33.5803949,66.3848667 33.6788165,64.859252 33.6788165,64.859252" id="Fill-27" fill="#FFA784"></path>
                        <path d="M38.0065342,59.1016961 C37.4248486,59.4566063 36.8338652,59.7940433 36.2440157,60.132388 C35.6559804,60.4723212 35.0543384,60.7943273 34.4819507,61.1505991 C34.3374932,61.2393266 34.198705,61.3207926 34.0977888,61.4362973 C33.9936977,61.5502135 33.9202217,61.6913606 33.8680627,61.8431732 C33.7592093,62.1479331 33.7397064,62.4883201 33.7102253,62.8223533 C33.6870939,63.1586557 33.6830119,63.498135 33.6836922,63.8378413 L33.6789299,64.8592293 C33.5995576,64.182086 33.5403686,63.5029004 33.548079,62.8155455 C33.5528413,62.4724354 33.5759727,62.1238791 33.6861868,61.7816767 C33.7408403,61.611937 33.8236143,61.4424242 33.9472083,61.3017309 C34.0705755,61.1578607 34.228413,61.0616446 34.3712831,60.9711017 C34.9634004,60.62368 35.5605068,60.3005392 36.1671379,59.9901062 C36.7737691,59.6810348 37.3842554,59.3799057 38.0065342,59.1016961" id="Fill-29" fill="#C45F3F"></path>
                        <path d="M37.2196826,69.2390574 C37.1586793,68.4706904 37.1248894,67.7018695 37.1006242,66.9323679 C37.0779464,66.1619586 37.0704627,65.3940454 37.0929137,64.6188707 C37.0963154,64.5224277 37.1062936,64.4232616 37.1155915,64.3247763 C37.131466,64.223114 37.1527831,64.1173671 37.1922425,64.0220587 C37.2682131,63.8303074 37.3747987,63.6539869 37.504289,63.503082 C37.7571464,63.1933298 38.0648841,62.9450742 38.3884963,62.7294957 C38.7127888,62.5141442 39.0515952,62.3253428 39.3983387,62.1551493 C39.7489375,61.9924443 40.1029379,61.8399509 40.4655559,61.7096961 C39.777965,62.0543948 39.0951365,62.4115742 38.4819289,62.8622466 C38.181448,63.0923483 37.881194,63.3294846 37.6539624,63.6233521 C37.5353576,63.7658608 37.4444196,63.9265234 37.3813753,64.0919515 C37.3482657,64.1756868 37.3337519,64.2596489 37.3208256,64.3476957 C37.3135687,64.4407348 37.306085,64.533547 37.3035905,64.6293092 C37.2639043,65.3915493 37.2741093,66.1624124 37.2620901,66.9307794 C37.2527922,67.6996003 37.2459888,68.468875 37.2196826,69.2390574" id="Fill-31" fill="#C45F3F"></path>
                        <path d="M41.0556549,70.0756379 C40.969706,69.3018248 40.9182274,68.5252885 40.8907873,67.7467098 C40.8735522,67.3573071 40.8744593,66.9679043 40.8855714,66.5764592 C40.8916944,66.3808501 40.9032601,66.1845603 40.9232165,65.9866819 C40.9424927,65.8838851 40.941132,65.7942498 40.9858073,65.6757951 C41.0307093,65.5716367 41.0896716,65.4813207 41.1558907,65.4025778 C41.4262101,65.0912371 41.7498223,64.8652201 42.0732077,64.6437416 C42.4004483,64.4274824 42.7329048,64.2218886 43.0776074,64.0394412 C43.7631572,63.6679655 44.4652619,63.3303015 45.1866426,63.0384764 C44.845115,63.2250085 44.5022267,63.4067751 44.1656881,63.6003419 C43.8262015,63.7877817 43.4889826,63.9793061 43.1583403,64.1803614 C42.8288319,64.3836859 42.4970557,64.5820181 42.1816076,64.8025889 C41.8688807,65.0224789 41.5545664,65.2557575 41.3187173,65.5366903 C41.2583944,65.6052215 41.2109978,65.6796528 41.1772079,65.7527226 C41.1486339,65.8160346 41.1402431,65.9238238 41.1227812,66.0114167 C41.1007837,66.1999912 41.0862699,66.3915156 41.076972,66.5839477 C41.0567888,66.9694928 41.0604172,67.3573071 41.05248,67.7448944 C41.0477176,68.1324818 41.0493051,68.52075 41.0531603,68.9090181 L41.0556549,70.0756379 Z" id="Fill-33" fill="#C45F3F"></path>
                        <path d="M78.3328303,48.7675456 C78.3328303,48.7675456 63.1366643,40.2049963 61.3662086,39.3193092 C59.5957529,38.4333952 58.2189837,39.0730959 57.7271023,40.0080257 C57.7271023,40.0080257 56.8757777,39.2641665 56.0181034,39.2823205 C55.0880869,39.302063 53.1042331,40.0205065 52.8828978,41.3861393 C52.8828978,41.3861393 51.0600563,41.1646608 49.942948,42.5670554 C48.8258397,43.96945 49.4528808,45.1136043 49.4528808,45.1136043 C49.4528808,45.1136043 47.0553839,45.888779 48.014428,49.8379494 L49.942948,48.7675456 C49.942948,48.7675456 62.7432045,56.0014509 64.0709896,56.6411516 C65.3987747,57.2810793 66.2349051,57.2318366 66.7267866,56.887138 L68.7922805,58.4127527 C68.2019774,51.8185481 78.3328303,48.7675456 78.3328303,48.7675456" id="Fill-37" fill="#C45F3F"></path>
                        <path d="M52.8829885,41.3860485 C53.2422048,41.4341566 53.5916697,41.5446689 53.928435,41.6760583 C54.2667878,41.8063131 54.5917606,41.9674296 54.9101569,42.1387577 C55.2276461,42.3121282 55.5340231,42.5043334 55.8311023,42.7094733 C55.9796419,42.8120433 56.1234191,42.9218748 56.2674231,43.0301179 C56.4059845,43.1467572 56.5479475,43.2574965 56.6819733,43.3791281 C56.3640305,43.2064384 56.0526644,43.0285295 55.7431124,42.8488051 C55.4308391,42.6738462 55.1237818,42.4916256 54.8090139,42.3239283 C54.4969674,42.1512386 54.1815192,41.9849028 53.8622158,41.8262824 C53.5410982,41.6715198 53.2206609,41.5131264 52.8829885,41.3860485" id="Fill-39" fill="#752C1B"></path>
                        <path d="M57.7270343,40.0080937 C58.2102981,40.1950797 58.6577311,40.4476469 59.0915574,40.7210911 C59.5206213,41.0008893 59.9399338,41.3040606 60.2966556,41.6814364 C59.8399247,41.4384001 59.4083662,41.1724443 58.9777148,40.8987732 C58.5502383,40.6207904 58.1259367,40.3384961 57.7270343,40.0080937" id="Fill-41" fill="#752C1B"></path>
                        <path d="M49.4528581,45.113695 C49.7683063,44.7907812 50.1803619,44.5491064 50.636866,44.4481249 C50.864551,44.3945707 51.1049357,44.387536 51.338517,44.423844 C51.5759536,44.4590173 51.794114,44.5434333 52.0036569,44.62558 C52.4254639,44.7969082 52.8304894,45.0006866 53.2228153,45.2248881 C53.6158216,45.4475013 53.9954479,45.6934876 54.3582927,45.9626203 L53.1461643,45.3705738 C52.7418192,45.1781417 52.3381544,44.9852557 51.9249649,44.821416 C51.7181434,44.7356385 51.5129093,44.6568956 51.305861,44.6205877 C51.0969985,44.5770182 50.8801987,44.5783797 50.6663471,44.6096953 C50.2395509,44.6766381 49.8202384,44.8536394 49.4528581,45.113695" id="Fill-43" fill="#752C1B"></path>
                        <path d="M49.0102555,48.3615547 C49.2451975,48.378801 49.4529261,48.4545938 49.654305,48.5442291 C49.8529625,48.6397644 50.0448167,48.749369 50.2096843,48.918201 C49.9745155,48.9014085 49.7667869,48.8256157 49.5656348,48.7355266 C49.3672041,48.6397644 49.1751231,48.5299328 49.0102555,48.3615547" id="Fill-45" fill="#752C1B"></path>
                    </g>
                </g>
            </g>
        </g>
    </g>
</svg>